<svg xmlns="http://www.w3.org/2000/svg" xmlns:xlink="http://www.w3.org/1999/xlink" width="237.876" height="58.763" viewBox="0 0 237.876 58.763"><defs><linearGradient id="a" x1="-55.593" y1="10.124" x2="-55.056" y2="9.113" gradientUnits="objectBoundingBox"><stop offset="0" stop-color="#5b779e"/><stop offset="0.399" stop-color="#2d3b50"/><stop offset="1" stop-color="#0c0e14"/></linearGradient><linearGradient id="b" x1="-131.301" y1="22.917" x2="-130.923" y2="22.208" gradientUnits="objectBoundingBox"><stop offset="0" stop-opacity="0"/><stop offset="1" stop-opacity="0.62"/></linearGradient><radialGradient id="c" cx="0.331" cy="0.176" r="1.602" gradientTransform="matrix(1.169, -0.199, -0.124, -0.51, 32.667, 12.738)" gradientUnits="objectBoundingBox"><stop offset="0" stop-color="#e6f1fd"/><stop offset="0" stop-color="#bdd9f9"/><stop offset="0.065" stop-color="#bdd9f9"/><stop offset="1" stop-color="#1c3556" stop-opacity="0.102"/></radialGradient><linearGradient id="d" x1="-148.372" y1="18.61" x2="-147.634" y2="17.602" xlink:href="#b"/><radialGradient id="e" cx="0.56" cy="-0.159" r="1.291" gradientTransform="matrix(1.631, -0.199, -0.172, -0.51, 125.057, -0.989)" xlink:href="#c"/><linearGradient id="f" x1="-375.919" y1="63.832" x2="-374.859" y2="62.957" gradientUnits="objectBoundingBox"><stop offset="0" stop-color="#fdec97"/><stop offset="0.353" stop-color="#fdec97"/><stop offset="0.513" stop-color="#fdec97"/><stop offset="0.628" stop-color="#db990f"/><stop offset="1" stop-color="#db990f"/></linearGradient><linearGradient id="g" x1="-327.325" y1="47.979" x2="-326.351" y2="48.931" gradientUnits="objectBoundingBox"><stop offset="0" stop-color="#ffdc76"/><stop offset="0.327" stop-color="#e4903b"/><stop offset="0.451" stop-color="#ca4400"/><stop offset="0.58" stop-color="#fdec97"/><stop offset="0.704" stop-color="#db990f"/><stop offset="1" stop-color="#db990f"/></linearGradient><linearGradient id="h" x1="-347.286" y1="48.91" x2="-347.974" y2="49.606" xlink:href="#g"/><linearGradient id="i" x1="-319.446" y1="62.945" x2="-318.585" y2="63.875" gradientUnits="objectBoundingBox"><stop offset="0" stop-color="#ca4400"/><stop offset="0.353" stop-color="#ca4400"/><stop offset="0.513" stop-color="#fdec97"/><stop offset="0.628" stop-color="#db990f"/><stop offset="1" stop-color="#db990f"/></linearGradient><linearGradient id="j" x1="-282.001" y1="15.196" x2="-281.314" y2="14.263" gradientUnits="objectBoundingBox"><stop offset="0" stop-color="#da940f"/><stop offset="0.235" stop-color="#efd11a"/><stop offset="0.75" stop-color="#efd11a"/><stop offset="0.908" stop-color="#efd11a"/><stop offset="1" stop-color="#d3900e"/></linearGradient><linearGradient id="k" x1="-380.588" y1="16.806" x2="-379.766" y2="15.834" gradientUnits="objectBoundingBox"><stop offset="0" stop-color="#c63000"/><stop offset="0.491" stop-color="#db9000"/><stop offset="0.8" stop-color="#db9000"/><stop offset="1" stop-color="#c43b00"/></linearGradient><linearGradient id="l" x1="-592.627" y1="22.311" x2="-593.568" y2="21.438" gradientUnits="objectBoundingBox"><stop offset="0" stop-color="#ad2f00"/><stop offset="1" stop-color="#cb7500"/></linearGradient><linearGradient id="m" x1="-556.13" y1="17.701" x2="-557.39" y2="16.999" gradientUnits="objectBoundingBox"><stop offset="0" stop-color="#ecd500"/><stop offset="0.869" stop-color="#ecd500"/><stop offset="1" stop-color="#ffef57"/></linearGradient><linearGradient id="n" x1="-370.581" y1="158.193" x2="-370.375" y2="157.128" gradientUnits="objectBoundingBox"><stop offset="0" stop-color="#ffd511"/><stop offset="1" stop-color="#fdf8dc"/></linearGradient><linearGradient id="o" x1="-390.449" y1="17.723" x2="-389.429" y2="16.81" gradientUnits="objectBoundingBox"><stop offset="0" stop-color="#bd3300"/><stop offset="0.188" stop-color="#bd3300"/><stop offset="0.411" stop-color="#cb8500"/><stop offset="1" stop-color="#c26f00"/></linearGradient><linearGradient id="p" x1="-644.499" y1="22.303" x2="-643.378" y2="21.508" gradientUnits="objectBoundingBox"><stop offset="0" stop-color="#ffd303"/><stop offset="0.902" stop-color="#ffd303"/><stop offset="1" stop-color="#d27e00"/></linearGradient><linearGradient id="q" x1="-297.694" y1="15.216" x2="-298.278" y2="14.204" gradientUnits="objectBoundingBox"><stop offset="0" stop-color="#a51f00"/><stop offset="0.288" stop-color="#c67200"/><stop offset="0.644" stop-color="#c67200"/><stop offset="1" stop-color="#c25500"/></linearGradient><linearGradient id="r" x1="-421.297" y1="16.804" x2="-422.127" y2="15.815" gradientUnits="objectBoundingBox"><stop offset="0" stop-color="#cd7c00"/><stop offset="0.314" stop-color="#eed700"/><stop offset="1" stop-color="#eed700"/></linearGradient><linearGradient id="s" x1="-327.12" y1="184.37" x2="-326.951" y2="183.308" xlink:href="#n"/><linearGradient id="t" x1="-49.668" y1="8.486" x2="-48.517" y2="8.965" gradientUnits="objectBoundingBox"><stop offset="0" stop-color="#51290e"/><stop offset="0.346" stop-color="#d08e29"/><stop offset="0.417" stop-color="#e1d02d"/><stop offset="0.498" stop-color="#f6e57f"/><stop offset="0.537" stop-color="#f6e57f"/><stop offset="0.605" stop-color="#e1d02d"/><stop offset="0.687" stop-color="#d08e29"/><stop offset="1" stop-color="#452a15"/></linearGradient><linearGradient id="u" x1="-51.484" y1="8.755" x2="-52.112" y2="9.643" gradientUnits="objectBoundingBox"><stop offset="0" stop-color="#ffe12b"/><stop offset="0.136" stop-color="#fff7c7" stop-opacity="0"/><stop offset="0.819" stop-color="#fff7c7" stop-opacity="0"/><stop offset="1" stop-color="#ffe12b"/></linearGradient></defs><g transform="translate(-6351.376 1029.632)"><g transform="translate(6405 -1094)"><path d="M89.84,82.178l8.787-9.491,9.42,9.631-4.92,2.883L99.893,81.9l-2.25,2.32v24.113l2.25,2.249,5.414-4.358,2.248,5.835-8.717,8.014-9-9.7Z" fill-rule="evenodd"/><path d="M104.674,86.536l13.074-7.522,11.389,12.3-7.521,7.1,5.061,2.319v7.1c0,2.391.705,3.515,2.461,5.2H122.39a7.4,7.4,0,0,1-2.742-6.046v-3.022l-3.865-2.531v6.538c0,1.969.42,2.882,2.318,5.062h-11.67c2.812-2.882,2.812-4.851,2.812-7.312v-16.8Zm11.107.563v7.732l3.865-3.655Zm-51.459.28L76.9,79.436,89.067,92.02l-7.381,6.819,5.2,2.6v6.468c0,2.39,1.055,3.444,2.812,5.132H82.74a7.309,7.309,0,0,1-3.093-5.483v-2.672l-3.937-2.46v5.694c0,1.9.352,2.812,2.39,4.921H66.079c2.882-2.742,2.882-4.71,2.882-7.1V89.7Zm11.388.211v7.8l4.358-3.515Z" fill-rule="evenodd"/><path d="M48.293,86.466c3.8-2.109,8.295-4.71,12.021-6.89-.633,3.656-.7,5.062.141,8.085q1.306,4.648,2.671,9.279a39.345,39.345,0,0,1,4.148-.422v2.53a25.332,25.332,0,0,0-3.3.915c.562,2.108,1.195,4.288,1.9,6.748.913,3.375,1.265,4.569,3.444,6.327H58.064c2.039-4.218,1.546-6.046.773-8.928l-.492-1.9A28.146,28.146,0,0,0,53,105.727c-1.055.844-1.547,1.195-1.688,2.531-.141,2.038,1.195,3.163,3.023,4.78H43.159a7.159,7.159,0,0,0,3.515-5.483c1.125-5.483,2.25-10.826,3.375-16.239C50.613,88.645,50.472,87.59,48.293,86.466Zm9,11.951-2.32-8.437c-.07.281-1.125,6.046-2.179,10.9A23.738,23.738,0,0,1,57.292,98.417Zm73.251-12.936q6.4-3.488,12.725-7.1c-.7,3.726-.7,5.273.141,8.366.914,3.163,1.688,5.835,2.461,8.506,1.547-.281,3.021-.422,4.639-.563v2.742a24.864,24.864,0,0,0-3.654,1.055c.7,2.46,1.406,5.061,2.248,8.014,1.055,3.516,1.406,4.71,3.656,6.538h-11.74c2.18-4.358,1.617-6.257.844-9.209l-.773-2.812a30.265,30.265,0,0,0-5.9,4.218,3.407,3.407,0,0,0-1.336,2.18c-.492,2.531.914,3.8,3.092,5.624H125.063a7.545,7.545,0,0,0,3.795-5.694c1.2-5.694,2.32-11.107,3.586-16.872.56-2.672.419-3.8-1.9-4.993Zm9.42,11.459-2.248-7.8c-.07.281-1.125,5.553-2.18,10.334A21.676,21.676,0,0,1,139.963,96.94Zm25.449-16.169h18.84v8.295c-1.055-1.054-1.828-1.758-3.445-1.758h-3.021v17.926a9.364,9.364,0,0,0,3.443,7.8H168.366c2.811-2.461,2.881-4.71,2.881-7.733v-18H169a3.936,3.936,0,0,0-3.586,1.758V80.771Z" fill-rule="evenodd"/><path d="M147.205,87.45c4.639-3.234,9.209-6.467,13.848-9.7,1.477,1.546,2.883,3.093,4.359,4.64v6.678c-1.266-1.195-2.531-2.39-3.727-3.515-.844.562-1.686,1.195-2.531,1.757v6.679h6.258v6.818a3.219,3.219,0,0,0-2.812-1.124h-3.445v6.959c0,2.6,0,4.358,2.461,6.4H149.737c2.248-2.18,2.389-3.093,2.389-6.819V89.347c-1.618-.632-3.306-1.264-4.921-1.9ZM8.5,73.952h12.3c-1.125,2.883-.492,6.046.07,8.717,1.195,5.554,2.32,11.038,3.515,16.52,1.9-8.014,3.8-16.028,5.625-24.042,1.968,7.874,3.866,15.747,5.834,23.551.984-5.625,2.18-12.936,3.163-18.63.633-3.585.773-4.569-1.054-6.116H50.823c-3.444,3.727-3.655,5.2-4.64,10.756-1.195,6.959-2.39,13.849-3.515,20.808-.562,3.023-.843,4.991,1.055,7.522H31.7a12.893,12.893,0,0,0,0-6.749c-.422-2.742-.914-5.413-1.406-8.154-.421,1.968-.914,4.007-1.335,5.976-1.054,4.5-1.406,6.046-.211,8.928H16.167c2.742-2.18,2.882-2.952,1.546-8.646-1.687-7.03-3.8-16.169-5.483-23.2-.984-4.289-1.055-4.711-3.726-7.242Z" fill-rule="evenodd"/></g><g transform="translate(6351.095 -1029.663)"><g transform="translate(3.986 3.895)"><path d="M24.191-24.921C24.2-10.884,13.132.5-.521.5S-25.246-10.87-25.25-24.906v-.016c0-14.038,11.06-25.42,24.713-25.424s24.724,11.37,24.729,25.408Z" transform="translate(26.764 50.346)" fill="url(#a)"/><path d="M.483-50.061l-9.9.619a1.306,1.306,0,0,0-.619.193l-8.66,5.567a1.309,1.309,0,0,0-.621,1.091,1.309,1.309,0,0,0,.583,1.112,7.091,7.091,0,0,1,2.591,2.474c.684,1.814,1.461,4.471,2.127,6.766q.438,1.535.928,3.054c.14.423.255.8.386,1.121a2.636,2.636,0,0,0,.542.928A1.577,1.577,0,0,0-12-27.02a5.431,5.431,0,0,0,1.932.966,18.336,18.336,0,0,0,2.4.542,15.866,15.866,0,0,0,2.281.193,2.877,2.877,0,0,0,2.01-.348c.04-.024.079-.049.116-.077a1.328,1.328,0,0,0,.464-.619,3.5,3.5,0,0,0,.193-.426c.108-.3.205-.641.309-1.044a40.73,40.73,0,0,0,1.044-5.915,5.935,5.935,0,0,0,0-2.242c-.01-.041.012-.074,0-.116H-1.3a14.447,14.447,0,0,0-1.585-3.9,12.131,12.131,0,0,0-3.093-3.6,1.114,1.114,0,0,1,.386-.233l4.833.037a1.319,1.319,0,0,0,.426-.077,1.9,1.9,0,0,0,.812-.233,1.953,1.953,0,0,0,.812-.773,2.387,2.387,0,0,0,.271-.889l.309-2.822a1.311,1.311,0,0,0-.35-1.062,1.311,1.311,0,0,0-1.042-.406Z" transform="translate(28.172 50.413)" fill="url(#b)"/><path d="M.307-49,0-46.182c-.087.8-.424.606-1.018.8L-6.113-45.4c-1.5.482-1.666,1.282-1.565,1.965,2.853,1.586,4.634,6.088,4.893,7.425.366,1.289-1.045,8.57-1.546,8.969-.845.526-5.852-.21-7.113-1.237-.678-.761-2.273-7.629-3.711-11.443-.529-1.365-1.95-2.323-3.093-3.093l8.66-5.567Z" transform="translate(28.424 50.665)" fill="url(#c)"/><path d="M-22.447-37.406a1.151,1.151,0,0,0-1,.851l-2.977,10.168a1.148,1.148,0,0,0,.464,1.275A7.183,7.183,0,0,1-23.3-22.56a1.1,1.1,0,0,0,.116.193.778.778,0,0,1,.038.116c.053.23.115.63.193,1.082.157.906.374,2.134.657,3.4a18.442,18.442,0,0,0,1.16,3.711,4.4,4.4,0,0,0,2.474,2.591c-.3-.1-.051.012.116.116s.386.246.657.426c.542.359,1.235.809,1.932,1.275s1.4.961,1.972,1.314c.286.177.546.307.773.426a3,3,0,0,0,.348.155.884.884,0,0,0,.735.077,1.135,1.135,0,0,0,.889-.619,1.725,1.725,0,0,0,.155-.426,5.884,5.884,0,0,0,.193-.773c.09-.563.156-1.257.233-1.932s.155-1.36.233-1.817a3.354,3.354,0,0,1,.077-.348c.085-.073.207-.063.271-.155a1.572,1.572,0,0,0,.271-1,3.585,3.585,0,0,0-.426-1.47,22.984,22.984,0,0,0-2.01-3.209c-1.587-2.235-3.4-4.436-4.214-5.334-.068-.223-.106-.452-.193-.7-.108-.3-.229-.636-.309-.928A19.8,19.8,0,0,0-11.5-24.763a1.133,1.133,0,0,0,.348-.038,7.209,7.209,0,0,0,1.779-.542,3.892,3.892,0,0,0,1-.58,2.06,2.06,0,0,0,.735-1.314,1.151,1.151,0,0,0-.193-.773c-2.2-3.286-5.358-4.126-8.66-5.334l-1.9-2.321a1.148,1.148,0,0,0-.426-.309l-3.054-1.314a1.128,1.128,0,0,0-.579-.116Z" transform="translate(26.474 53.414)" fill="url(#d)"/><path d="M-17.42-32.6c3.489,1.3,6.35,1.965,8.386,5.008-.087.8-1.838,1.34-2.55,1.456a20.329,20.329,0,0,1-5.967-1.878c-1.888-.407-.245,2.923-.144,3.606,1.348,1.467,8.036,9.667,6.2,9.89-.45.056-.645,5.437-1.064,5.511s-5.52-3.635-5.978-3.784c-2.941-.969-3.423-10.143-3.9-10.418-.528-1.365-1.95-2.323-3.093-3.093l2.974-10.159,3.071,1.313L-17.42-32.6Z" transform="translate(26.698 53.639)" fill="url(#e)"/></g><path d="M46.437,14.882,46.4,6.3a1.528,1.528,0,0,0-1.546-1.546L37,4.676a1.534,1.534,0,0,0-1.121,2.591l7.887,8.66a1.532,1.532,0,0,0,2.667-1.044Z" transform="translate(8.342 1.101)" fill="rgba(0,0,0,0.32)"/><path d="M45.817,14.779,45.779,6.2a1.018,1.018,0,0,0-1-1l-7.848-.077a1.024,1.024,0,0,0-.773,1.7l7.887,8.66a1.023,1.023,0,0,0,1.778-.7Z" transform="translate(8.445 1.206)" fill="rgba(0,0,0,0.32)"/><path d="M45.424,14.719l-.038-8.583a.683.683,0,0,0-.7-.7l-7.848-.077a.687.687,0,0,0-.5,1.159l7.887,8.66a.685.685,0,0,0,1.2-.463Z" transform="translate(8.505 1.264)" fill="rgba(0,0,0,0.32)"/><path d="M44.98,14.657l-.038-8.583a.322.322,0,0,0-.038-.116.334.334,0,0,0-.077-.116.374.374,0,0,0-.038-.038.315.315,0,0,0-.155-.038.374.374,0,0,0-.038-.038L36.747,5.65a.318.318,0,0,0-.077.038.33.33,0,0,0-.116.038.25.25,0,0,0-.115.193.322.322,0,0,0,0,.193.346.346,0,0,0,.077.116l7.887,8.66a.334.334,0,0,0,.271.077.329.329,0,0,0,.155-.038.373.373,0,0,0,.038-.038.318.318,0,0,0,.077-.116.349.349,0,0,0,.037-.115Z" transform="translate(8.57 1.332)" fill="rgba(0,0,0,0.33)"/><path d="M37.086,6.042,44.42,6.01l-.071,7.879L37.086,6.042Z" transform="translate(8.727 1.418)" fill="url(#f)"/><path d="M37.422,44.479,46,44.441a1.529,1.529,0,0,0,1.546-1.546l.077-7.848a1.532,1.532,0,0,0-2.591-1.121l-8.66,7.887a1.532,1.532,0,0,0,1.044,2.667Z" transform="translate(8.44 7.936)" fill="rgba(0,0,0,0.32)"/><path d="M37.344,43.861l8.583-.038a1.019,1.019,0,0,0,1-1l.077-7.848a1.023,1.023,0,0,0-1.7-.773l-8.66,7.887a1.022,1.022,0,0,0,.7,1.778Z" transform="translate(8.544 8.04)" fill="rgba(0,0,0,0.32)"/><path d="M37.343,43.467l8.583-.038a.689.689,0,0,0,.7-.7l.077-7.848a.682.682,0,0,0-1.159-.5l-8.66,7.887a.685.685,0,1,0,.464,1.2Z" transform="translate(8.518 8.099)" fill="rgba(0,0,0,0.32)"/><path d="M37.157,43.027l8.583-.038a.33.33,0,0,0,.116-.038.334.334,0,0,0,.116-.077.374.374,0,0,0,.038-.038.318.318,0,0,0,.038-.155.373.373,0,0,0,.038-.038l.077-7.848a.371.371,0,0,0-.038-.077.358.358,0,0,0-.038-.116.25.25,0,0,0-.193-.115.322.322,0,0,0-.193,0,.334.334,0,0,0-.116.077l-8.66,7.887a.431.431,0,0,0-.038.426.373.373,0,0,0,.038.038.309.309,0,0,0,.116.077.322.322,0,0,0,.115.037Z" transform="translate(8.67 8.166)" fill="rgba(0,0,0,0.33)"/><path d="M45.605,33.924l.026,8.776H37.21l8.4-8.776Z" transform="translate(8.757 8.037)" fill="url(#g)"/><path d="M2.625,34.421,2.663,43A1.532,1.532,0,0,0,4.21,44.551l7.848.077a1.532,1.532,0,0,0,1.121-2.591l-7.887-8.66a1.534,1.534,0,0,0-2.667,1.044Z" transform="translate(0.556 7.788)" fill="rgba(0,0,0,0.32)"/><path d="M3.062,34.344,3.1,42.927a1.019,1.019,0,0,0,1.006,1l7.848.077a1.019,1.019,0,0,0,.773-1.7l-7.887-8.66a1.022,1.022,0,0,0-1.779.7Z" transform="translate(0.659 7.891)" fill="rgba(0,0,0,0.32)"/><path d="M3.313,34.258l.038,8.583a.685.685,0,0,0,.7.7l7.848.077a.682.682,0,0,0,.5-1.159l-7.887-8.66a.685.685,0,0,0-1.2.464Z" transform="translate(0.719 7.951)" fill="rgba(0,0,0,0.32)"/><path d="M3.589,34.162l.038,8.583a.33.33,0,0,0,.038.116.346.346,0,0,0,.077.116.281.281,0,0,0,.038.038.318.318,0,0,0,.155.038.281.281,0,0,0,.038.038l7.848.077a.343.343,0,0,0,.077-.038.357.357,0,0,0,.116-.038.25.25,0,0,0,.115-.193.322.322,0,0,0,0-.193.359.359,0,0,0-.077-.116l-7.887-8.66a.328.328,0,0,0-.271-.077.333.333,0,0,0-.155.038.281.281,0,0,0-.038.038.329.329,0,0,0-.077.116.322.322,0,0,0-.037.115Z" transform="translate(0.784 8.019)" fill="rgba(0,0,0,0.33)"/><path d="M11.927,42.651H4V34.013Z" transform="translate(0.882 8.058)" fill="url(#h)"/><path d="M13.894,4.75l-8.583.038A1.532,1.532,0,0,0,3.765,6.335l-.077,7.848A1.532,1.532,0,0,0,6.279,15.3l8.66-7.887A1.53,1.53,0,0,0,13.894,4.75Z" transform="translate(0.808 1.119)" fill="rgba(0,0,0,0.32)"/><path d="M13.79,5.188l-8.583.038a1.019,1.019,0,0,0-1,1l-.077,7.848a1.023,1.023,0,0,0,1.7.773l8.66-7.887a1.022,1.022,0,0,0-.7-1.778Z" transform="translate(0.912 1.223)" fill="rgba(0,0,0,0.32)"/><path d="M13.731,5.438l-8.583.038a.684.684,0,0,0-.7.7L4.376,14.02a.684.684,0,0,0,1.159.5L14.2,6.636a.685.685,0,0,0-.464-1.2Z" transform="translate(0.971 1.282)" fill="rgba(0,0,0,0.32)"/><path d="M13.664,5.719l-8.583.038a.322.322,0,0,0-.116.038.332.332,0,0,0-.116.078.281.281,0,0,0-.038.038.34.34,0,0,0-.038.155.281.281,0,0,0-.038.038l-.077,7.848a.3.3,0,0,0,.038.077.322.322,0,0,0,.038.116.346.346,0,0,0,.077.077.322.322,0,0,0,.116.038.322.322,0,0,0,.193,0,.334.334,0,0,0,.116-.077L13.9,6.3a.327.327,0,0,0,.077-.271.34.34,0,0,0-.038-.155.281.281,0,0,0-.038-.038.5.5,0,0,0-.231-.115Z" transform="translate(1.038 1.349)" fill="rgba(0,0,0,0.33)"/><path d="M4.95,13.888,5,6.053l8.593-.038L4.95,13.888Z" transform="translate(1.107 1.419)" fill="url(#i)"/><g transform="translate(11.778 11.859)"><path d="M11.054,10.594a.5.5,0,0,0-.356.21.488.488,0,0,0-.069.408l.851,2.977,5.876,26.134-.542,2.86a.491.491,0,0,0,.464.579h8.544a.495.495,0,0,0,.464-.619L25.744,40.4l1.47-5.605,1.817,5.685-.812,2.629a.492.492,0,0,0,.464.657l9.626.04a.491.491,0,0,0,.464-.657l-1.121-3.016,4.407-25.323,1.663-3.518a.492.492,0,0,0-.424-.7h-8.39a.492.492,0,0,0-.5.58l.5,2.86-2.9,16.353L27.484,12.914a.492.492,0,0,0-.928,0L22.188,30.272,18.553,14.035l.464-2.86a.492.492,0,0,0-.155-.426.487.487,0,0,0-.348-.155H11.092a.2.2,0,0,0-.038,0Z" transform="translate(-9.329 -9.354)" fill="rgba(0,0,0,0.29)"/><path d="M10.977,10.282A.9.9,0,0,0,10.32,11.4l.85,2.938h-.038L17.008,40.4l-.542,2.784a.9.9,0,0,0,.889,1.044H25.9a.9.9,0,0,0,.889-1.082l-.542-2.629,1.082-4.137,1.353,4.175-.773,2.513a.909.909,0,0,0,.137.792.9.9,0,0,0,.713.369l9.627.04a.9.9,0,0,0,.851-1.2l-1.082-2.938,4.368-25.052,1.663-3.518a.9.9,0,0,0-.812-1.275h-8.39a.9.9,0,0,0-.889,1.043l.464,2.784L32.046,28.491,27.987,12.872a.9.9,0,0,0-1.779,0L22.265,28.491l-3.209-14.5.426-2.667a.9.9,0,0,0-.889-1.043H11.17a.916.916,0,0,0-.193,0Z" transform="translate(-9.406 -9.429)" fill="rgba(0,0,0,0.29)"/><path d="M10.976,9.97a1.284,1.284,0,0,0-.966,1.624l.851,2.9v.077L16.7,40.4l-.542,2.784a1.284,1.284,0,0,0,1.275,1.508h8.544a1.287,1.287,0,0,0,1.275-1.546l-.541-2.63.735-2.707.889,2.822-.735,2.4a1.287,1.287,0,0,0,1.237,1.663l9.626.038a1.287,1.287,0,0,0,1.2-1.7L38.619,40.2l4.368-24.975,1.623-3.44a1.285,1.285,0,0,0-1.159-1.817H35.062a1.283,1.283,0,0,0-1.275,1.508l.464,2.707-2.242,12.6-3.6-13.918a1.285,1.285,0,0,0-2.474,0L22.382,27.019l-2.86-12.873.426-2.707A1.282,1.282,0,0,0,18.67,9.97H11.247A1.24,1.24,0,0,0,10.976,9.97Z" transform="translate(-9.484 -9.504)" fill="rgba(0,0,0,0.29)"/><path d="M11.145,9.595a1.749,1.749,0,0,0-1.508,2.2l.851,2.9v.077l5.838,25.787-.5,2.591a1.748,1.748,0,0,0,1.7,2.087h8.544A1.749,1.749,0,0,0,27.5,44.5a1.749,1.749,0,0,0,1.43.735l9.626.04a1.749,1.749,0,0,0,1.623-2.358l-.966-2.667L43.5,15.51l1.623-3.4a1.75,1.75,0,0,0-1.585-2.514H35.153a1.749,1.749,0,0,0-1.739,2.049l.464,2.629-1.856,10.4L28.967,12.842a1.748,1.748,0,0,0-3.4,0L22.51,25.02,20.075,14.2,20.5,11.6a1.748,1.748,0,0,0-1.739-2.01H11.338a1.674,1.674,0,0,0-.193,0Zm16.43,30,.386,1.16-.426,1.314-.271-1.314Z" transform="translate(-9.575 -9.592)" fill="rgba(0,0,0,0.29)"/><path d="M10.992,11l.88,2.967,5.9,26.231-.58,2.978h8.553l-.59-2.87,1.942-7.365L29.433,40.4,28.6,43.176l9.636.02L37.053,40.05l4.429-25.4L43.2,11l-8.388,0,.486,2.952L32.029,32.612l-5.1-19.678-4.872,19.33-4.1-18.4L18.425,11Z" transform="translate(-9.238 -9.259)" fill="rgba(0,0,0,0.29)"/></g><g transform="translate(13.532 13.601)"><path d="M11,11l4.18,3.088,5.6,26.023-3.6,3.064.585-2.986L11.889,13.977Z" transform="translate(-10.99 -11)" fill="url(#j)"/><path d="M19.6,34.531,16,37.6l8.568-.01-3.306-3.035-1.663-.02Z" transform="translate(-9.805 -5.42)" fill="#792100"/><path d="M17.6,11.023l-3.219,3.068,5.6,26.013,1.648.015-.332-8.093L17.311,13.971l.289-2.948Z" transform="translate(-10.188 -10.995)" fill="url(#k)"/><path d="M23.55,41l-3.3-3.04,4.624-17.769.02,10.564-1.942,7.374L23.55,41Z" transform="translate(-8.796 -8.821)" fill="url(#l)"/><path d="M24.794,12.531l.155,9.395L20.3,39.782,20,31.745Z" transform="translate(-8.856 -10.637)" fill="url(#m)"/><path d="M10.992,11l4.2,3.093,3.238-3.083Z" transform="translate(-10.992 -11)" fill="url(#n)"/><path d="M23.867,12.547l.155,9.443,4.257,17.791,2.655.014L23.867,12.547Z" transform="translate(-7.939 -10.633)" fill="url(#o)"/><path d="M23.992,20.188l.02,10.544,2.346,7.486-.831,2.766,2.748-3L23.992,20.188Z" transform="translate(-7.909 -8.821)" fill="url(#p)"/><path d="M30.6,34.559l-2.609.01-2.776,3.02,9.641.017L30.6,34.559Z" transform="translate(-7.619 -5.414)" fill="#792100"/><path d="M37.072,14.6,38.8,11.017l-4.642,2.625-4.6,26.507L33.839,43.2l-1.186-3.15L37.072,14.6Z" transform="translate(-6.59 -10.996)" fill="url(#q)"/><path d="M31.271,13.933l-.5-2.91,3.757,2.6-4.6,26.5L27.994,32.6Z" transform="translate(-6.96 -10.995)" fill="url(#r)"/><path d="M30.235,11.019l3.739,2.638L38.654,11Z" transform="translate(-6.429 -10.999)" fill="url(#s)"/></g><g transform="translate(0.281 0.031)"><path d="M29.409.938A28.26,28.26,0,1,0,57.63,29.2,28.25,28.25,0,0,0,29.409.938Zm-.116,4.871A23.215,23.215,0,1,1,6.135,29a23.139,23.139,0,0,1,23.158-23.2Z" transform="translate(-0.066 0.184)" fill="rgba(0,0,0,0.26)"/><path d="M29.491.594A28.686,28.686,0,1,0,58.137,29.28,28.679,28.679,0,0,0,29.491.594Zm-.116,5.722A22.79,22.79,0,1,1,6.642,29.086,22.71,22.71,0,0,1,29.374,6.316Z" transform="translate(-0.147 0.102)" fill="rgba(0,0,0,0.28)"/><path d="M29.624.031A29.382,29.382,0,1,0,58.967,29.413,29.387,29.387,0,0,0,29.624.031Zm-.116,7.113A22.094,22.094,0,1,1,7.472,29.22,22,22,0,0,1,29.508,7.144Z" transform="translate(-0.281 -0.031)" fill="rgba(0,0,0,0.42)"/><path d="M29.328,1.281a27.835,27.835,0,1,0,27.8,27.835,27.815,27.815,0,0,0-27.8-27.835ZM29.212,5.3A23.641,23.641,0,1,1,5.63,28.923,23.575,23.575,0,0,1,29.212,5.3Z" transform="translate(0.015 0.265)" fill="url(#t)"/><path d="M28.486,1.428A26.405,26.405,0,1,0,54.853,27.833,26.366,26.366,0,0,0,28.486,1.428ZM28.37,2.587A25.071,25.071,0,1,1,3.358,27.639,25.025,25.025,0,0,1,28.37,2.587Z" transform="translate(0.155 0.3)" fill="url(#u)"/></g></g></g></svg>