<svg xmlns="http://www.w3.org/2000/svg" width="633.043" height="126.611" viewBox="0 0 633.043 126.611"><g transform="translate(0.547)"><path d="M38.171,53.2,62.759,28.616l24.6,24.6,14.307-14.307L62.759,0,23.864,38.9Z" fill="#f3ba2f"/><rect width="20.233" height="20.234" transform="translate(13.761 48.997) rotate(45)" fill="#f3ba2f"/><path d="M38.171,73.408,62.759,98l24.6-24.6,14.315,14.3-.007.008L62.759,126.611l-38.9-38.895-.02-.02Z" fill="#f3ba2f"/><rect width="20.234" height="20.233" transform="translate(126.066 63.31) rotate(135)" fill="#f3ba2f"/><path d="M77.271,63.3h.006L62.759,48.78,52.03,59.509h0L50.8,60.742l-2.543,2.543h0l-.02.02.02.021,14.5,14.505L77.277,63.313l.007-.008Z" fill="#f3ba2f"/><path d="M148.37,30.679h31.117q11.585,0,17.521,5.946A15.519,15.519,0,0,1,201.6,48.039v.192a16.476,16.476,0,0,1-.714,5.083,15.807,15.807,0,0,1-1.907,3.98,15.163,15.163,0,0,1-2.763,3.117,18.526,18.526,0,0,1-3.383,2.3,22.639,22.639,0,0,1,9.166,6q3.341,3.791,3.342,10.5V79.4a17.427,17.427,0,0,1-1.771,8.058,15.654,15.654,0,0,1-5.076,5.755,23.783,23.783,0,0,1-7.948,3.453,42.816,42.816,0,0,1-10.292,1.15H148.37Zm28.006,27.143a15.379,15.379,0,0,0,7.769-1.678,5.8,5.8,0,0,0,2.877-5.419v-.192a5.912,5.912,0,0,0-2.494-5.131q-2.494-1.774-7.193-1.775H162.756V57.822h13.62Zm3.933,27.049a14.19,14.19,0,0,0,7.673-1.774,6.078,6.078,0,0,0,2.782-5.516V77.39a6.336,6.336,0,0,0-2.59-5.324q-2.591-1.963-8.345-1.965H162.756V84.872h17.553Z" fill="#f3ba2f"/><path d="M223.875,30.679h14.772V97.82H223.875Z" fill="#f3ba2f"/><path d="M261.02,30.679h13.618L306.1,72.019V30.679h14.579V97.82H308.114L275.6,55.138V97.82H261.02Z" fill="#f3ba2f"/><path d="M365.4,30.2h13.619l28.776,67.62H392.35l-6.139-15.058H357.82L351.682,97.82H336.621Zm15.538,39.516-8.921-21.772L363.1,69.716Z" fill="#f3ba2f"/><path d="M423.738,30.679h13.621l31.459,41.34V30.679H483.4V97.82H470.833L438.317,55.138V97.82H423.738Z" fill="#f3ba2f"/><path d="M536.557,98.97a34.778,34.778,0,0,1-13.717-2.685,33.1,33.1,0,0,1-18.127-18.32,35.366,35.366,0,0,1-2.59-13.525v-.191a35,35,0,0,1,2.59-13.476,34.609,34.609,0,0,1,7.193-11.03,33.342,33.342,0,0,1,11.029-7.482,35.916,35.916,0,0,1,14.2-2.733,44.519,44.519,0,0,1,8.582.767,35.946,35.946,0,0,1,7.051,2.11,30.712,30.712,0,0,1,5.852,3.261,39.868,39.868,0,0,1,4.986,4.221l-9.4,10.838a35.626,35.626,0,0,0-8.01-5.563,20.413,20.413,0,0,0-9.16-2.014,18.592,18.592,0,0,0-14,6.138A21.074,21.074,0,0,0,519,55.952a22.691,22.691,0,0,0-1.436,8.1v.191A23.064,23.064,0,0,0,519,72.4a21.331,21.331,0,0,0,3.982,6.714,18.447,18.447,0,0,0,14.051,6.235,20.56,20.56,0,0,0,9.734-2.11,37.671,37.671,0,0,0,7.914-5.755l9.4,9.5a48.815,48.815,0,0,1-5.371,4.987,31.924,31.924,0,0,1-6.092,3.79,31.564,31.564,0,0,1-7.24,2.4A43.69,43.69,0,0,1,536.557,98.97Z" fill="#f3ba2f"/><path d="M581.467,30.679h50.547V43.82H596.047V57.44H627.7V70.58H596.047v14.1H632.5V97.82H581.467Z" fill="#f3ba2f"/></g></svg>