<svg xmlns="http://www.w3.org/2000/svg" width="48.657" height="50.445" viewBox="0 0 48.657 50.445"><path d="M43.273,15.764H-3.02A1.182,1.182,0,0,1-4.2,14.582V11.035A4.729,4.729,0,0,1,.527,6.306H5.256V1.182A1.182,1.182,0,0,1,6.439,0H10.38a1.182,1.182,0,0,1,1.182,1.182V6.306H28.691V1.182A1.182,1.182,0,0,1,29.873,0h3.941A1.182,1.182,0,0,1,35,1.182V6.306h4.729a4.729,4.729,0,0,1,4.729,4.729v3.547A1.182,1.182,0,0,1,43.273,15.764ZM-3.02,18.917H43.273A1.182,1.182,0,0,1,44.455,20.1V45.715a4.729,4.729,0,0,1-4.729,4.729H.527A4.729,4.729,0,0,1-4.2,45.715V20.1A1.182,1.182,0,0,1-3.02,18.917Zm36.251,9.419-2.775-2.8a1.182,1.182,0,0,0-1.672-.007L18.336,35.895l-4.53-4.567a1.182,1.182,0,0,0-1.672-.007L9.336,34.1a1.182,1.182,0,0,0-.007,1.672l8.138,8.2a1.182,1.182,0,0,0,1.672.007L33.224,30.008a1.182,1.182,0,0,0,.007-1.672Z" transform="translate(4.202)" fill="#707070"/></svg>