<svg xmlns="http://www.w3.org/2000/svg" xmlns:xlink="http://www.w3.org/1999/xlink" width="111.399" height="90.644" viewBox="0 0 111.399 90.644"><defs><filter id="a" x="0" y="0" width="111.399" height="90.644" filterUnits="userSpaceOnUse"><feOffset dy="3" input="SourceAlpha"/><feGaussianBlur stdDeviation="3" result="b"/><feFlood flood-opacity="0.161"/><feComposite operator="in" in2="b"/><feComposite in="SourceGraphic"/></filter><filter id="c" x="15.066" y="15.066" width="55.322" height="60.511" filterUnits="userSpaceOnUse"><feOffset dy="3" input="SourceAlpha"/><feGaussianBlur stdDeviation="3" result="d"/><feFlood flood-opacity="0.161"/><feComposite operator="in" in2="d"/><feComposite in="SourceGraphic"/></filter></defs><g transform="translate(9 6)"><g transform="matrix(1, 0, 0, 1, -9, -6)" filter="url(#a)"><path d="M85.616,32H7.783A7.785,7.785,0,0,0,0,39.783V96.86a7.785,7.785,0,0,0,7.783,7.783H85.616A7.785,7.785,0,0,0,93.4,96.86V39.783A7.785,7.785,0,0,0,85.616,32Zm0,64.86H7.783V39.783H85.616ZM33.727,68.322A10.378,10.378,0,1,0,23.35,57.944,10.387,10.387,0,0,0,33.727,68.322ZM19.2,89.077H48.256a3.4,3.4,0,0,0,3.632-3.113V82.85c0-5.156-4.881-9.34-10.9-9.34-1.751,0-3.032,1.3-7.264,1.3-4.362,0-5.416-1.3-7.264-1.3-6.016,0-10.9,4.183-10.9,9.34v3.113A3.4,3.4,0,0,0,19.2,89.077ZM58.374,78.7H76.535a1.3,1.3,0,0,0,1.3-1.3V74.808a1.3,1.3,0,0,0-1.3-1.3H58.374a1.3,1.3,0,0,0-1.3,1.3V77.4A1.3,1.3,0,0,0,58.374,78.7Zm0-10.378H76.535a1.3,1.3,0,0,0,1.3-1.3V64.43a1.3,1.3,0,0,0-1.3-1.3H58.374a1.3,1.3,0,0,0-1.3,1.3v2.594A1.3,1.3,0,0,0,58.374,68.322Zm0-10.378H76.535a1.3,1.3,0,0,0,1.3-1.3V54.053a1.3,1.3,0,0,0-1.3-1.3H58.374a1.3,1.3,0,0,0-1.3,1.3v2.594A1.3,1.3,0,0,0,58.374,57.944Z" transform="translate(9 -26)" fill="#707070"/></g><g transform="matrix(1, 0, 0, 1, -9, -6)" filter="url(#c)"><path d="M3.632,41.511A3.4,3.4,0,0,1,0,38.4V35.285c0-5.157,4.881-9.34,10.9-9.34,1.849,0,2.9,1.3,7.265,1.3,4.232,0,5.513-1.3,7.264-1.3,6.016,0,10.9,4.183,10.9,9.34V38.4a3.4,3.4,0,0,1-3.632,3.113ZM7.783,10.378A10.378,10.378,0,1,1,18.161,20.756,10.388,10.388,0,0,1,7.783,10.378Z" transform="translate(24.57 21.57)" fill="#265cb7" stroke="rgba(0,0,0,0)" stroke-miterlimit="10" stroke-width="1"/></g></g></svg>