<svg xmlns="http://www.w3.org/2000/svg" xmlns:xlink="http://www.w3.org/1999/xlink" width="103.505" height="93" viewBox="0 0 103.505 93"><defs><filter id="a" x="0" y="0" width="103.505" height="93" filterUnits="userSpaceOnUse"><feOffset dy="3" input="SourceAlpha"/><feGaussianBlur stdDeviation="3" result="b"/><feFlood flood-opacity="0.161"/><feComposite operator="in" in2="b"/><feComposite in="SourceGraphic"/></filter><filter id="c" x="33.003" y="16.326" width="37.207" height="52.159" filterUnits="userSpaceOnUse"><feOffset dy="3" input="SourceAlpha"/><feGaussianBlur stdDeviation="3" result="d"/><feFlood flood-opacity="0.161"/><feComposite operator="in" in2="d"/><feComposite in="SourceGraphic"/></filter></defs><g transform="translate(10.066 7)"><g transform="matrix(1, 0, 0, 1, -10.07, -7)" filter="url(#a)"><path d="M41.659,32C18.618,32-.056,47.17-.056,65.893c0,7.756,3.243,14.861,8.62,20.58A41.35,41.35,0,0,1,1,98.4,3.912,3.912,0,0,0,3.855,105a39.537,39.537,0,0,0,22.666-7.544,50.327,50.327,0,0,0,15.138,2.33c23.041,0,41.714-15.17,41.714-33.893S64.7,32,41.659,32Zm0,59.964a42.343,42.343,0,0,1-12.775-1.972l-3.7-1.173-3.177,2.249a35.039,35.039,0,0,1-9.369,4.725,40.871,40.871,0,0,0,3.243-6.55l1.727-4.579-3.357-3.552C11.3,77.967,7.766,72.769,7.766,65.893c0-14.372,15.2-26.071,33.893-26.071s33.893,11.7,33.893,26.071S60.349,91.964,41.659,91.964Z" transform="translate(10.13 -25)" fill="#707070" stroke="#707070" stroke-width="2"/></g><g transform="matrix(1, 0, 0, 1, -10.07, -7)" filter="url(#c)"><path d="M14,15.573,6.789,13.465a1.968,1.968,0,0,1,.554-3.857h4.421a4.073,4.073,0,0,1,2.281.7,1.04,1.04,0,0,0,1.3-.133l2.322-2.269a1.082,1.082,0,0,0-.12-1.635,9.435,9.435,0,0,0-5.767-2v-3.2A1.07,1.07,0,0,0,10.71,0H8.575A1.07,1.07,0,0,0,7.507,1.067v3.2H7.34A7.31,7.31,0,0,0,.067,12.25,7.638,7.638,0,0,0,5.659,18.7l6.839,2a1.968,1.968,0,0,1-.554,3.857H7.52a4.073,4.073,0,0,1-2.281-.7,1.04,1.04,0,0,0-1.3.133L1.616,26.255a1.082,1.082,0,0,0,.119,1.637,9.435,9.435,0,0,0,5.767,2v3.2A1.07,1.07,0,0,0,8.57,34.159H10.7a1.07,1.07,0,0,0,1.072-1.067V29.877a7.536,7.536,0,0,0,7.052-4.85,7.327,7.327,0,0,0-4.837-9.455Z" transform="translate(41.97 22.33)" fill="#265cb7"/></g></g></svg>