<svg xmlns="http://www.w3.org/2000/svg" width="639" height="391.562" viewBox="0 0 639 391.562"><g transform="translate(-610 -3890.588)"><g transform="translate(610 3813)"><path d="M154.955,317.368c13.447,30.371-3.71,65.355-23.874,91.726-6.762,8.827-14.2,18.066-15.144,29.177-1.129,13.55,8.046,26.009,18.938,34.152a79.741,79.741,0,0,0,70.608,11.943c20.422-6.452,37.591-21.08,58.187-26.977,34.468-9.866,70.975,6.491,100.469,26.861,20.873,14.414,43.231,31.939,68.395,28.861,17.718-2.168,32.752-14.6,42.947-29.248,4.923-7.1,9.207-14.989,16.382-19.763,4.265-2.839,9.272-4.342,14.285-5.414,45.747-9.775,94.288,14.085,139.428,1.813,30.487-8.291,54.8-32.391,69.911-60.129s22.17-59.071,28.048-90.113c4.175-22.06,7.64-45.863-1.936-66.162-10.156-21.473-33.662-34.488-57.284-36.92s-47.321,4.31-69.085,13.821c-27.2,11.892-53.851,28.539-83.538,28.6-20.215.039-39.488-7.743-58.819-13.634-32.378-9.891-65.93-14.808-99.437-19.344-32.062-4.342-64.433-8.388-96.688-5.807-22.822,1.813-42.972,10.537-65.117,14.569-14.434,2.633-28.939.645-43.1,5.1-17.421,5.452-35.384,18.105-36.346,38.011C131.275,287.416,147.819,301.243,154.955,317.368Z" transform="translate(-108.739 -129.087)" fill="#6c63ff" opacity="0.1"/><g transform="translate(416.047 111.137)" opacity="0.5"><path d="M783.894,265.748c-3.226.929-7.233,3.329-9.194,9.917-3.871,12.9,5.084,21.731,2.149,35.133a26.2,26.2,0,0,1-4.517,9.853c-3.594,4.872-7.5,7.181-11.285,10.595a33.668,33.668,0,0,0-9.917,16.286,45.076,45.076,0,0,0-.445,21.17c1.349,5.846,3.646,10.1,5.646,14.84a109.6,109.6,0,0,1,5.807,18.712,45.5,45.5,0,0,1,1.29,9.491,83.763,83.763,0,0,1-1.174,12.7l-5.465,38.14a113.248,113.248,0,0,0-1.49,15.073,74.6,74.6,0,0,0,1.749,15.053c1.936,10.091,3.981,20.564,8.388,25.887s11.879,3.478,16.479-7.388c4.375-10.324,4.465-24.132,8.323-35.178,6.078-17.421,18.17-19.744,24.874-36.346,6.452-15.924,4.465-35.488,7.743-53.632,2.336-13.014,7.31-24.887,10.259-37.746,4.239-18.525,3.82-37.752.432-51.986s-9.466-24.009-16.176-31.423c-2.846-3.142-5.885-5.936-9.459-6.214-3.8-.29-7.1,4.517-10.872,5.93C792.662,266.245,788.3,264.5,783.894,265.748Z" transform="translate(-749.636 -258.67)" fill="#265cb7"/><path d="M816.2,260.09S809.745,424.8,782.69,521.938" transform="translate(-761.362 -259.174)" fill="none" stroke="#535461" stroke-miterlimit="10" stroke-width="2"/><path d="M788.22,286.26s28.894,26.332,23.441,76.505" transform="translate(-763.324 -268.458)" fill="none" stroke="#535461" stroke-miterlimit="10" stroke-width="2"/><path d="M750.6,402.38s47.489,9.549,43.966,37.952" transform="translate(-749.978 -309.654)" fill="none" stroke="#535461" stroke-miterlimit="10" stroke-width="2"/><path d="M859.793,316.41s-19.209,16.821-36.333,64.465" transform="translate(-775.826 -279.155)" fill="none" stroke="#535461" stroke-miterlimit="10" stroke-width="2"/><path d="M837.665,525.457S824.554,535.78,814.03,499.77" transform="translate(-772.481 -344.205)" fill="none" stroke="#535461" stroke-miterlimit="10" stroke-width="2"/><path d="M763,561s26.738-3.491,29.2-20.241" transform="translate(-754.377 -358.747)" fill="none" stroke="#535461" stroke-miterlimit="10" stroke-width="2"/></g><path d="M906.244,348.807" transform="translate(-355.27 -157.836)" fill="none" stroke="#535461" stroke-miterlimit="10" stroke-width="2"/><ellipse cx="275.946" cy="26.506" rx="275.946" ry="26.506" transform="translate(39.067 350.802)" fill="#6c63ff" opacity="0.1"/><path d="M163.92,622.29s5.407,7.1-2.5,17.744S147,659.726,149.667,666.379c0,0,11.924-19.828,21.628-20.105S174.6,634.214,163.92,622.29Z" transform="translate(-120.524 -276.534)" fill="#6c63ff"/><path d="M164.079,622.29a8.754,8.754,0,0,1,1.1,2.22c9.472,11.124,14.511,21.505,5.414,21.77-8.478.245-18.647,15.4-21.086,19.234a8.219,8.219,0,0,0,.29.871s11.924-19.828,21.628-20.105S174.758,634.214,164.079,622.29Z" transform="translate(-120.683 -276.534)" opacity="0.1"/><path d="M186.96,635.39c0,2.491-.277,4.517-.645,4.517s-.645-2.02-.645-4.517.348-1.291.69-1.291S186.96,632.9,186.96,635.39Z" transform="translate(-133.512 -280.621)" fill="#ffd037"/><path d="M190.656,639.923c-2.187,1.194-4.091,1.936-4.252,1.607s1.471-1.516,3.658-2.7,1.323-.323,1.49,0S192.85,638.723,190.656,639.923Z" transform="translate(-133.768 -282.185)" fill="#ffd037"/><path d="M121.161,622.29s-5.407,7.1,2.5,17.744,14.4,19.693,11.814,26.345c0,0-11.924-19.828-21.628-20.105S110.489,634.214,121.161,622.29Z" transform="translate(-106.33 -276.534)" fill="#6c63ff"/><path d="M121.149,622.29a8.755,8.755,0,0,0-1.1,2.22c-9.472,11.124-14.511,21.506-5.413,21.77,8.478.245,18.647,15.4,21.086,19.234a8.213,8.213,0,0,1-.29.871S123.5,646.557,113.8,646.28,110.476,634.214,121.149,622.29Z" transform="translate(-106.317 -276.534)" opacity="0.1"/><path d="M112.25,635.39c0,2.491.277,4.517.645,4.517s.645-2.02.645-4.517-.348-1.291-.69-1.291S112.25,632.9,112.25,635.39Z" transform="translate(-107.464 -280.621)" fill="#ffd037"/><path d="M106.167,639.923c2.187,1.194,4.091,1.936,4.252,1.607s-1.471-1.516-3.658-2.7-1.323-.323-1.49,0S103.979,638.723,106.167,639.923Z" transform="translate(-104.833 -282.185)" fill="#ffd037"/><path d="M114.91,684.7s15.118-.465,19.673-3.71,23.228-7.1,24.383-1.936,22.719,25.88,5.652,26.016-39.656-2.658-44.2-5.426S114.91,684.7,114.91,684.7Z" transform="translate(-108.408 -295.778)" fill="#a8a8a8"/><path d="M164.932,707.776c-17.066.136-39.656-2.658-44.2-5.426-3.465-2.11-4.846-9.679-5.3-13.169h-.5s.955,12.195,5.5,14.963,27.138,5.568,44.231,5.433c4.93-.039,6.627-1.794,6.536-4.388C170.462,706.756,168.6,707.737,164.932,707.776Z" transform="translate(-108.412 -300.265)" opacity="0.2"/><path d="M419.87,509.27s75.653-48.334,127.956-48.334c0,0,62.968-9.807,131.459,6.768s93.791,38.069,112.78,31.758L712.289,501.8Z" transform="translate(-216.598 -218.269)" fill="#8cd0f3"/><path d="M419.87,509.27s75.653-48.334,127.956-48.334c0,0,62.968-9.807,131.459,6.768s93.791,38.069,112.78,31.758L712.289,501.8Z" transform="translate(-216.598 -218.269)" fill="#8cd0f3" opacity="0.1"/><path d="M613.992,526.185H152.6l12.685-50.825,78.46-20.86,370.247,9.73Z" transform="translate(-54.133 -161.208)" fill="#121c3f"/><path d="M726.345,553.046v16.221s-13.7,9.937-14.944,17.718c0,0-19.615,4.981-25.216,4.981a16.254,16.254,0,0,0-1.645.058,46.573,46.573,0,0,0,2.045-7.22,47.55,47.55,0,1,0-90.248,9.679h-26.6s-.245.084-.645.258c-1.426.645-4.788,2.349-5.272,5.026H343.407l-4.517-.039a46.632,46.632,0,0,0,2.581-4.994,46.081,46.081,0,0,0,3.136-9.917,47.6,47.6,0,1,0-87.693,14.756c-3.149-.768-10.02-2.949-10.02-2.949s-29.261-3.11-36.733-9.679l1.129-.781,4.788-3.271-2.181-8.388a5.162,5.162,0,0,1-.645-1.148c-.581-1.4-1.09-4,.961-7.265,3.11-4.981,1.555-22.725,1.555-22.725s42.34-29.261,125.775-35.8a12.045,12.045,0,0,0,6.11,1.871,26.693,26.693,0,0,0,11.33-1.871s6.846,3.11,36.133-13.7c0,0,49.818-34.249,115.2-31.126,0,0,67.246-4.052,124.53,18.066,24.687,9.524,43.469,14.6,56.858,17.286,12.363,2.484,20.125,2.942,23.68,2.981h2.278s0,7.414.394,16.169v.045c.142,3.045.336,6.252.607,9.369v.194c.748,8.678,2.039,16.563,4.278,18.125Z" transform="translate(-142.2 -219.827)" fill="#2856b8"/><path d="M228.917,580.188s18.757-14.634,42.108-11.517c0,0-21.247,16.815-30.823,15.724l-1.632-1.4-9.678.542S227.446,581.278,228.917,580.188Z" transform="translate(-148.62 -257.357)" fill="#8cd0f3"/><path d="M241.34,626v8.64s-.645,8.253-8.1,8.562l-21.293,1.052,4.781-3.271-2.181-8.388a4.99,4.99,0,0,1-.645-1.142c1.936-1.781,6.5-4.788,15.776-5.433Z" transform="translate(-142.835 -277.85)" fill="#fff" opacity="0.2"/><path d="M411.06,569.525l16.344-.645s-6.614,5.214-11.285,5.685S411.06,569.525,411.06,569.525Z" transform="translate(-213.473 -257.586)" fill="#fff" opacity="0.2"/><path d="M464.38,638.309s147.8-20.551,183.53-14.014c0,0,10.5.7,14.479,4.9s0,1.478,0,1.478Z" transform="translate(-232.389 -276.79)" fill="#fff" opacity="0.2"/><path d="M592.61,554.8s1.871-3.5,4.9-3.581l19.693-1.013s-.31,2.723-3.813,3.736Z" transform="translate(-277.881 -250.963)" fill="#18218a" opacity="0.5"/><path d="M769.21,545.62s1.871-3.5,4.9-3.581L793.806,541s-.31,2.723-3.813,3.736Z" transform="translate(-340.533 -247.695)" fill="#18218a" opacity="0.5"/><path d="M599.943,473.344l-15.111,39.63-54.483.058H481.62s7.278-5.342,19-12.15c3.871-2.258,8.265-4.671,13.034-7.1,4.388-2.245,9.111-4.517,14.073-6.672,3.871-1.7,7.949-3.342,12.117-4.871C558.745,475.331,579.986,470.692,599.943,473.344Z" transform="translate(-238.505 -223.424)" fill="#8cd0f3"/><path d="M752.376,502.177s-22.764,3.375-44.489,5.872c-8.3.955-16.453,1.781-23.125,2.239l-.929.065c-2.581.168-4.975.277-7.007.316a25.785,25.785,0,0,1-6.846-.471l6.278-37.907s7.743.084,19.2.645l2.5.135c2.381.136,4.891.29,7.511.471,3.742.258,7.685.568,11.75.942,19.628,1.8,41.863,5.033,55.942,10.853C803.117,497.738,752.376,502.177,752.376,502.177Z" transform="translate(-305.329 -223.319)" fill="#8cd0f3"/><path d="M952.949,548.153V558.27s-16.344.232-12.84-3.033a50.065,50.065,0,0,0,6.149-7.1Z" transform="translate(-400.988 -250.228)" fill="#8cd0f3"/><path d="M990.932,554.157,977.66,555.2V543.033s6.149-8.64,12.3.936l.355.561Z" transform="translate(-414.485 -247.147)" fill="#8cd0f3"/><circle cx="37.985" cy="37.985" r="37.985" transform="translate(117.772 317.65)" fill="#182a7c"/><path d="M359.831,620.769a30.571,30.571,0,1,1-.645-6.194,30.571,30.571,0,0,1,.645,6.194Z" transform="translate(-173.606 -265.167)" fill="#3f8ffe"/><ellipse cx="26.19" cy="26.254" rx="26.19" ry="26.254" transform="translate(129.522 329.341)" fill="#18218a" opacity="0.5"/><path d="M351.1,591.418v1.11l-8.717,28.861L335.39,590.94a30.642,30.642,0,0,1,15.711.477Z" transform="translate(-186.627 -265.128)" fill="#3f8ffe"/><path d="M351.193,667.238a30.648,30.648,0,0,1-15.363.529l6.7-29.2Z" transform="translate(-186.784 -282.31)" fill="#3f8ffe"/><path d="M376.712,634.148a30.636,30.636,0,0,1-1.458,9.382h-.123l-28.861-8.717,29.848-6.852A30.8,30.8,0,0,1,376.712,634.148Z" transform="translate(-190.487 -278.546)" fill="#3f8ffe"/><path d="M329.434,634.792l-28.861,8.717h-.226a30.894,30.894,0,0,1-.832-15.589Z" transform="translate(-173.677 -278.532)" fill="#3f8ffe"/><circle cx="3.349" cy="3.349" r="3.349" transform="translate(152.363 352.247)" fill="#182a7c"/><circle cx="37.985" cy="37.985" r="37.985" transform="translate(459.532 317.65)" fill="#182a7c"/><path d="M889.511,620.768a30.571,30.571,0,1,1-.645-6.194,30.571,30.571,0,0,1,.645,6.194Z" transform="translate(-361.52 -265.166)" fill="#3f8ffe"/><ellipse cx="26.19" cy="26.254" rx="26.19" ry="26.254" transform="translate(471.288 329.341)" fill="#18218a" opacity="0.5"/><path d="M880.771,591.418v1.11l-8.717,28.861L865.06,590.94a30.641,30.641,0,0,1,15.711.478Z" transform="translate(-374.538 -265.128)" fill="#3f8ffe"/><path d="M880.873,667.238a30.648,30.648,0,0,1-15.363.529l6.7-29.2Z" transform="translate(-374.697 -282.31)" fill="#3f8ffe"/><path d="M906.374,634.144a30.638,30.638,0,0,1-1.458,9.382h-.148L875.9,634.8l29.849-6.852A30.806,30.806,0,0,1,906.374,634.144Z" transform="translate(-378.383 -278.542)" fill="#3f8ffe"/><path d="M859.1,634.792l-28.861,8.717h-.226a30.893,30.893,0,0,1-.832-15.589Z" transform="translate(-361.587 -278.532)" fill="#3f8ffe"/><circle cx="3.349" cy="3.349" r="3.349" transform="translate(494.129 352.247)" fill="#182a7c"/><path d="M520.233,505.5l-9.543,19.234H500.14l7.052-12.137C511.083,510.339,515.464,507.933,520.233,505.5Z" transform="translate(-245.076 -235.101)" fill="#fff" opacity="0.2"/><path d="M558.922,487.61l-9.5,30.758H535.39l11.421-25.9C550.708,490.778,554.76,489.152,558.922,487.61Z" transform="translate(-257.581 -228.754)" fill="#fff" opacity="0.2"/><path d="M709.252,473.95l-20.706,36.72-.929.065c-2.581.168-4.975.277-7.007.316l18.628-37.7,2.5.135C704.09,473.615,706.619,473.769,709.252,473.95Z" transform="translate(-309.101 -223.695)" fill="#fff" opacity="0.2"/><path d="M370.841,448.63,359.02,530.052l98.727-2.162,16.208-78.905Z" transform="translate(-127.365 -159.125)" fill="none" stroke="#fff" stroke-miterlimit="10" stroke-width="1" opacity="0.2"/><path d="M639.882,667.436c-1.426.645-4.788,2.349-5.272,5.026H414.187l-4.517-.039a46.634,46.634,0,0,0,2.581-4.994Z" transform="translate(-212.98 -292.548)" fill="#18218a" opacity="0.5"/><path d="M453.221,749.714a10.275,10.275,0,0,0,3.355-5.059c.439-2.007-.419-4.42-2.342-5.162-2.149-.826-4.452.645-6.194,2.174s-3.742,3.226-6.02,2.9a9.169,9.169,0,0,0,2.833-8.582,3.588,3.588,0,0,0-.787-1.742c-1.194-1.29-3.362-.729-4.788.277-4.517,3.226-5.807,9.375-5.839,14.937-.458-2.007-.071-4.1-.084-6.156s-.574-4.336-2.31-5.446a6.961,6.961,0,0,0-3.523-.826c-2.045-.077-4.323.129-5.717,1.626-1.736,1.858-1.29,4.975.226,7.02s3.807,3.329,5.917,4.742a13.125,13.125,0,0,1,4.226,4.033,3.991,3.991,0,0,1,.316.723H445.3a35.721,35.721,0,0,0,7.917-5.465Z" transform="translate(-216.888 -315.987)" fill="#6c63ff"/><path d="M873,768.88a7.53,7.53,0,0,0,2.471-3.729,3.31,3.31,0,0,0-1.729-3.8c-1.587-.606-3.284.49-4.568,1.607s-2.761,2.381-4.445,2.142a6.762,6.762,0,0,0,2.09-6.33,2.645,2.645,0,0,0-.581-1.29c-.884-.942-2.478-.536-3.536.206-3.355,2.362-4.291,6.917-4.31,11.021a21.129,21.129,0,0,1-.065-4.517c-.013-1.5-.426-3.226-1.7-4.013a5.16,5.16,0,0,0-2.581-.613c-1.51-.058-3.187.1-4.22,1.2-1.29,1.368-.948,3.671.168,5.162a16.792,16.792,0,0,0,4.368,3.5,9.678,9.678,0,0,1,3.123,2.974,2.953,2.953,0,0,1,.232.529h9.453A26.341,26.341,0,0,0,873,768.88Z" transform="translate(-368.839 -324.3)" fill="#6c63ff"/><path d="M938,800.69a7.529,7.529,0,0,0,2.471-3.729,3.31,3.31,0,0,0-1.729-3.8c-1.587-.607-3.284.49-4.568,1.607s-2.762,2.381-4.446,2.142a6.762,6.762,0,0,0,2.091-6.33,2.647,2.647,0,0,0-.581-1.29c-.884-.942-2.478-.536-3.536.206-3.355,2.362-4.291,6.917-4.31,11.021a21.126,21.126,0,0,1-.064-4.517c-.013-1.5-.426-3.226-1.7-4.013a5.163,5.163,0,0,0-2.581-.613c-1.51-.058-3.187.1-4.22,1.2-1.291,1.368-.948,3.671.168,5.162a16.8,16.8,0,0,0,4.368,3.5,9.678,9.678,0,0,1,3.123,2.975,2.936,2.936,0,0,1,.232.529h9.453A26.342,26.342,0,0,0,938,800.69Z" transform="translate(-391.899 -335.585)" fill="#6c63ff"/><path d="M623.226,613.851H623S630.42,611.851,623.226,613.851Z" transform="translate(-288.662 -273.225)" opacity="0.1"/><path d="M718.385,672.25v1.1a2.389,2.389,0,0,1,0-1.1Z" transform="translate(-322.479 -294.258)" opacity="0.1"/></g><path d="M389.773,512.681c-3.1,3.368-5.377,4.693-5.27,1.14.326-10.748-18.558-59.341-18.558-59.341l5.586-.423C383.719,475.077,388.249,496.677,389.773,512.681Z" transform="translate(437.096 3502.219)" fill="none"/><path d="M413.149,591.369a26.869,26.869,0,0,1-53.638,2.306c-.039-.436-.068-.873-.081-1.316v-.023q-.02-.484-.02-.967a26.87,26.87,0,0,1,53.739,0Z" transform="translate(440.364 3446.981)" fill="#65617d"/><circle cx="14.656" cy="14.656" r="14.656" transform="translate(811.987 4023.693)" fill="#dce0ed"/><circle cx="8.794" cy="8.794" r="8.794" transform="translate(817.85 4029.556)" fill="#65617d"/><path d="M207.255,496.41l-64.7,1.3V488.16c.58-7.677,8.452-10.37,15.636-11.214a44.875,44.875,0,0,1,16.718,1.254c13.728,3.635,22.482,4.338,26.782,4.407a4.108,4.108,0,0,1,3.973,3.342c.205,1.091.407,2.28.6,3.452.143.918.28,1.824.4,2.667C207.017,494.514,207.255,496.41,207.255,496.41Z" transform="translate(548.825 3490.914)" fill="#65617d"/><path d="M235.527,537.867H101.118a5.291,5.291,0,0,1-4.9-3.169c-1.013-2.42.4-3.964,1.915-4.869a15.227,15.227,0,0,0,6.618-8.1c1.433-4.218,2.833-10.859,3.384-21.209.567-10.706,4.442-16,8.631-18.561h0a17.089,17.089,0,0,1,11.341-2.068l54.5.436a10.477,10.477,0,0,1,2.661,1.736c4.856,4.521-2.224,10.422-2.224,10.422-15.2,16.066-3.693,32.351-3.693,32.351h27.886a25.662,25.662,0,0,0,14.607-4.472c3.768-2.6,5.227-5.123,5.791-6.647.43-1.166.866-2.329,1.387-3.456,7.315-15.864-1.508-41.672-5.315-51.322-.945-2.4-1.58-3.8-1.58-3.8l8.745-.661,5.53-.42.055,0c12.187,21.02,16.718,42.62,18.242,58.625.143,1.508.261,2.97.355,4.374a19.545,19.545,0,0,1-19.525,20.811Z" transform="translate(572.171 3502.219)" fill="#265cb7"/><path d="M206.662,504.817H142.553V502.15h63.705C206.4,503.068,206.539,503.973,206.662,504.817Z" transform="translate(548.825 3478.165)" opacity="0.1"/><path d="M206.172,507.69H138.187a1.287,1.287,0,0,1-.515-.1,17.088,17.088,0,0,1,11.341-2.068l54.5.436A10.474,10.474,0,0,1,206.172,507.69Z" transform="translate(551.266 3476.594)" opacity="0.1"/><rect width="70.486" height="2.666" rx="1.333" transform="translate(688.853 3980.967)" fill="#b1b5c4"/><path d="M389.773,512.681c-3.1,3.368-5.377,4.693-5.27,1.14.326-10.748-18.558-59.341-18.558-59.341l5.586-.423C383.719,475.077,388.249,496.677,389.773,512.681Z" transform="translate(437.096 3502.219)" opacity="0.1"/><path d="M413.007,588.424c-3.208.769-7.175,1.55-12.067,2.267q-2.726.4-5.849.769c-4.993.593-10.767,1.111-17.437,1.508q-2.834.171-5.885.31-5.716.259-12.236.4l-.081-1.316v-.023c6.074-2.452,15.63-9,17.17-26.039a26.884,26.884,0,0,1,36.386,22.127Z" transform="translate(440.344 3446.981)" opacity="0.1"/><path d="M349.318,571.356s30.843-3.341,20.225-50.341c0,0,15.241,13.97,24.72,21.735s26.375,18.47,26.375,18.47S410.548,570.65,349.318,571.356Z" transform="translate(445.412 3468.729)" fill="#6c63ff"/><path d="M349.318,571.356s30.843-3.341,20.225-50.341c0,0,15.241,13.97,24.72,21.735s26.375,18.47,26.375,18.47S410.548,570.65,349.318,571.356Z" transform="translate(445.412 3468.729)" fill="#265cb7" opacity="0.1"/><circle cx="26.87" cy="26.87" r="26.87" transform="translate(685.46 4011.48)" fill="#65617d"/><circle cx="14.656" cy="14.656" r="14.656" transform="translate(697.674 4023.693)" fill="#dce0ed"/><circle cx="8.794" cy="8.794" r="8.794" transform="translate(703.536 4029.556)" fill="#65617d"/><path d="M183.148,570.674c0-17.352-13.78-31.419-30.778-31.419s-30.778,14.066-30.778,31.419c0,.732.027,1.458.075,2.178h61.406C183.121,572.131,183.148,571.405,183.148,570.674Z" transform="translate(559.309 3459.607)" opacity="0.1"/><path d="M183.148,570.754c0-16.709-13.269-30.255-29.638-30.255s-29.638,13.546-29.638,30.255c0,.705.026,1.4.072,2.1h59.132C183.123,572.158,183.148,571.459,183.148,570.754Z" transform="translate(558.168 3458.985)" fill="#6c63ff"/><path d="M183.148,570.755c0,.485-.013.967-.036,1.446-.01.218-.023.433-.036.651H123.944c-.013-.218-.026-.433-.036-.651-.023-.479-.036-.961-.036-1.446,0-16.708,13.269-30.253,29.638-30.253S183.148,554.047,183.148,570.755Z" transform="translate(558.168 3458.983)" fill="#265cb7" opacity="0.1"/><path d="M183.149,603.919c-.01.218-.023.433-.036.651H123.981c-.013-.218-.026-.433-.036-.651Z" transform="translate(558.132 3427.265)" opacity="0.1"/><ellipse cx="3.901" cy="9.823" rx="3.901" ry="9.823" transform="matrix(0.911, -0.412, 0.412, 0.911, 809.924, 3970.217)" opacity="0.1"/><ellipse cx="3.901" cy="9.823" rx="3.901" ry="9.823" transform="matrix(0.911, -0.412, 0.412, 0.911, 810.249, 3969.891)" fill="#b1b5c4"/><path d="M362.726,454.063v5.1h-9.934a17.114,17.114,0,0,1-2.762-.221c-.945-2.4-1.58-3.8-1.58-3.8l8.745-.661Z" transform="translate(445.846 3502.216)" opacity="0.1"/><path d="M351.264,432.441h-9.934c-8.724,0-15.8-6.527-15.8-14.579v-1.353c0-8.052,7.072-14.579,15.8-14.579l9.934.9Z" transform="translate(457.307 3528.29)" fill="#265cb7"/><path d="M333.6,418.872s5.944,3.175,2.524,8.549c0,0-4.193,6.88-10.789,6.229l-2.4-14.778S330.827,418.139,333.6,418.872Z" transform="translate(458.61 3519.979)" fill="#6c63ff"/><path d="M331.313,418.6a6.319,6.319,0,0,1,4.826,2.547,5.207,5.207,0,0,1-.02,6.29s-4.193,6.88-10.788,6.229l-2.4-14.778a73.475,73.475,0,0,1,8.385-.287Z" transform="translate(458.611 3519.96)" opacity="0.1"/><path d="M333.358,250.506h0a7.979,7.979,0,0,1,7.98,7.979v13.649a7.979,7.979,0,0,1-7.979,7.979h0V250.506Z" transform="translate(474.888 3680.616)" opacity="0.1"/><path d="M334.009,250.506h0a7.979,7.979,0,0,1,7.979,7.979v13.65a7.979,7.979,0,0,1-7.979,7.979h0Z" transform="translate(474.562 3680.616)" fill="#b1b5c4"/><ellipse cx="6.599" cy="8.029" rx="6.599" ry="8.029" transform="translate(774.252 3938.508)" fill="#265cb7"/></g></svg>