<svg xmlns="http://www.w3.org/2000/svg" xmlns:xlink="http://www.w3.org/1999/xlink" width="687.827" height="414.34" viewBox="0 0 687.827 414.34"><defs><linearGradient id="a" x1="-0.361" y1="-0.654" x2="1" y2="1" gradientUnits="objectBoundingBox"><stop offset="0" stop-color="#87a5d8"/><stop offset="1" stop-color="#265cb7"/></linearGradient></defs><g transform="translate(0 0)"><path d="M201.064,565.771l-4.13-16.291a211.556,211.556,0,0,0-22.444-8.052L173.968,549l-2.115-8.341c-9.458-2.7-15.893-3.891-15.893-3.891s8.691,33.051,26.921,58.319l21.242,3.731-16.5,2.379A85.583,85.583,0,0,0,195,609.02c26.519,24.615,56.057,35.909,65.974,25.225s-3.542-39.3-30.061-63.916c-8.221-7.631-18.549-13.755-28.887-18.575Z" transform="translate(-155.96 -262.395)" fill="#265cb7"/><path d="M255.848,537.357l4.885-16.081a211.565,211.565,0,0,0-15.051-18.494l-4.36,6.212,2.5-8.234c-6.7-7.2-11.594-11.546-11.594-11.546s-9.644,32.786-7.1,63.84l16.255,14.174-15.356-6.493a85.59,85.59,0,0,0,2.276,10.512c9.978,34.78,29.426,59.716,43.438,55.7s17.282-35.473,7.3-70.253c-3.093-10.782-8.769-21.363-15.127-30.832Z" transform="translate(-171.461 -251.672)" fill="#e6e6e6" stroke="#707070" stroke-width="1"/><rect width="687.766" height="1.735" transform="translate(0.062 377.69)" fill="#3f3d56"/><path d="M291.042,436.12s-5.356,64.4-6.506,78.2a98.14,98.14,0,0,1-5.75,25.3,23.788,23.788,0,0,0-2.3,9.2v58.648s-4.6,0-3.45,4.6,2.3,12.65,2.3,12.65h17.25s-1.15-3.45,2.3-4.6,0-10.35,0-10.35l18.4-69,27.6-57.5s16.1,51.749,19.549,57.5c0,0,12.65,64.4,14.95,70.148s3.45,5.75,2.3,8.05-1.15,4.6,0,5.75,23,0,23,0l-5.75-81.648-10.35-97.747-52.9-16.1Z" transform="translate(-182.318 -238.145)" fill="#2f2e41"/><path d="M283.841,666.629s-5.75-20.7-14.95-4.6-9.2,21.849-9.2,21.849-14.95,21.849,5.75,19.549,16.1-12.65,16.1-12.65,8.05-4.6,8.05-8.05S283.841,666.629,283.841,666.629Z" transform="translate(-178.174 -289.258)" fill="#2f2e41"/><path d="M410.985,663.66s5.75-20.7,14.95-4.6,9.2,21.849,9.2,21.849,14.95,21.849-5.75,19.549-16.1-12.65-16.1-12.65-8.05-4.6-8.05-8.05S410.985,663.66,410.985,663.66Z" transform="translate(-212.169 -288.589)" fill="#2f2e41"/><path d="M341.147,237.686s2.3,14.95-4.6,18.4,14.95,16.1,20.7,16.1,16.1-11.5,16.1-11.5-5.75-17.25-4.6-20.7Z" transform="translate(-196.38 -194.956)" fill="#a0616a"/><circle cx="24.149" cy="24.149" r="24.149" transform="translate(133.268 5.931)" fill="#a0616a"/><path d="M391.837,279.506l-28.748-17.418s-16.357,18.568-34.053-2.132l-30.346,8.05,4.6,78.2s-6.9,31.049-4.6,36.8-5.75,8.05-3.45,9.2,0,9.2,0,9.2,44.849,23,94.3,5.75l-4.6-14.95a12.067,12.067,0,0,0-2.3-11.5s4.6-6.9-1.15-12.65c0,0,2.3-10.35-3.45-14.95l-1.15-16.1,3.45-8.05Z" transform="translate(-187.272 -199.977)" fill="#cfcce0"/><path d="M339.437,201.382s-2.879,6.231,8.637,3.738c0,0,4.319,2.492,4.319-1.246,0,0,5.758,6.231,7.2,2.492s4.319,1.246,4.319,1.246l2.879-6.231,2.879,3.738h10.077s2.879-24.923-31.67-22.431-17.553,41.98-17.553,41.98.278-7.088,3.157-3.35S339.437,201.382,339.437,201.382Z" transform="translate(-194.379 -182.515)" fill="#2f2e41"/><path d="M427.157,344.589l1.15,24.149s4.6,44.849-4.6,64.4v10.35s-2.3,26.449-13.8,25.3,3.45-37.949,3.45-37.949l-2.3-50.6-2.3-28.749Z" transform="translate(-212.242 -219.061)" fill="#a0616a"/><path d="M400.737,286.14l11.472-1.864a56.007,56.007,0,0,1,16.128,29.463c3.45,18.4,4.6,21.849,4.6,21.849l-27.6,6.9-14.95-28.749Z" transform="translate(-208.821 -205.461)" fill="#cfcce0"/><rect width="181.476" height="90.149" transform="translate(142.523 67.555)" fill="#fff"/><path d="M361.946,276.013c-4.662-2.8-10.284-2.59-12.421-2.375.814,1.987,3.256,7.055,7.918,9.86s10.288,2.59,12.422,2.378C369.051,283.889,366.609,278.819,361.946,276.013Z" transform="translate(-199.607 -203.037)" fill="#547abb"/><path d="M383.457,348.571H354.317a6.556,6.556,0,1,0,0,13.113h29.14a6.556,6.556,0,1,0,0-13.113Z" transform="translate(-199.209 -219.959)" fill="#547abb"/><path d="M512.442,259.215H349.065a14.472,14.472,0,0,0-14.472,14.473v79.6a14.472,14.472,0,0,0,14.472,14.473H512.442a14.472,14.472,0,0,0,14.472-14.472v-79.6a14.472,14.472,0,0,0-14.473-14.473Zm-167.42,9.872c.323-.058,7.973-1.36,14.308,2.452s8.768,11.181,8.869,11.492l.256.795-.822.146a21.821,21.821,0,0,1-3.545.26,21.11,21.11,0,0,1-10.763-2.713c-6.335-3.81-8.768-11.18-8.868-11.492l-.256-.795Zm35.465,73.9h-29.14a8.013,8.013,0,1,1,0-16.027h29.14a8.013,8.013,0,1,1,0,16.027Zm132.586-1.457a8.768,8.768,0,0,1-8.742,8.742H482.476a8.768,8.768,0,0,1-8.742-8.742V328.422a8.768,8.768,0,0,1,8.742-8.742h21.855a8.767,8.767,0,0,1,8.742,8.742Z" transform="translate(-196.24 -199.81)" fill="url(#a)"/><path d="M530.967,362.209H521.5a2.55,2.55,0,0,0,0,5.1h9.471a2.55,2.55,0,1,0,0-5.1Zm0,3.642H521.5a1.093,1.093,0,1,1,0-2.185h9.471a1.093,1.093,0,1,1,0,2.185Z" transform="translate(-237.81 -223.034)" fill="#6c63ff"/><path d="M553.541,362.209h-9.471a2.55,2.55,0,1,0,0,5.1h9.47a2.55,2.55,0,1,0,0-5.1Zm0,3.642h-9.471a1.093,1.093,0,1,1,0-2.185h9.47a1.093,1.093,0,0,1,0,2.185Z" transform="translate(-242.9 -223.034)" fill="#6c63ff"/><path d="M530.967,353.744H521.5a2.55,2.55,0,0,0,0,5.1h9.471a2.55,2.55,0,1,0,0-5.1Zm0,3.643H521.5a1.093,1.093,0,1,1,0-2.186h9.471a1.093,1.093,0,1,1,0,2.186Z" transform="translate(-237.81 -221.125)" fill="#6c63ff"/><path d="M553.541,353.744h-9.471a2.55,2.55,0,1,0,0,5.1h9.47a2.55,2.55,0,1,0,0-5.1Zm0,3.643h-9.471a1.093,1.093,0,1,1,0-2.186h9.47a1.093,1.093,0,0,1,0,2.186Z" transform="translate(-242.9 -221.125)" fill="#6c63ff"/><path d="M530.967,345.279H521.5a2.55,2.55,0,0,0,0,5.1h9.471a2.55,2.55,0,1,0,0-5.1Zm0,3.642H521.5a1.093,1.093,0,1,1,0-2.185h9.471a1.093,1.093,0,1,1,0,2.185Z" transform="translate(-237.81 -219.217)" fill="#6c63ff"/><path d="M553.541,345.279h-9.471a2.55,2.55,0,1,0,0,5.1h9.47a2.55,2.55,0,1,0,0-5.1Zm0,3.642h-9.471a1.093,1.093,0,1,1,0-2.185h9.47a1.093,1.093,0,0,1,0,2.185Z" transform="translate(-242.9 -219.217)" fill="#6c63ff"/><path d="M276.384,318.354s-10.35,43.7,2.3,43.7S321.233,312.6,321.233,312.6s31.049-16.1,18.4-21.849-28.749,9.2-28.749,9.2l-18.577,25.791-.973-13.141Z" transform="translate(-182.215 -206.625)" fill="#a0616a"/><path d="M300.355,277.25l-6.9-6.9s-13.8,8.05-14.95,16.1-6.9,33.349-6.9,33.349l21.274,1.725,6.9-10.35Z" transform="translate(-182.037 -202.321)" fill="#cfcce0"/><path d="M728.641,249.248c-.866-2.558-11.73-11.253-5.073-12.715l5.459,7.279,25.1-25.1,2.524,2.524Z" transform="translate(-283.465 -190.678)" fill="#265cb7"/><path d="M728.641,359.442c-.866-2.558-11.73-11.253-5.073-12.715l5.459,7.279,25.1-25.1,2.524,2.524Z" transform="translate(-283.465 -215.525)" fill="#265cb7"/><path d="M728.641,471.21c-.866-2.558-11.73-11.253-5.073-12.715l5.459,7.279,25.1-25.1,2.524,2.524Z" transform="translate(-283.465 -240.728)" fill="#265cb7"/><circle cx="7.745" cy="7.745" r="7.745" transform="translate(513.455 40.447)" fill="#3f3d56"/><rect width="124.696" height="1.549" transform="translate(550.244 47.418)" fill="#3f3d56"/><circle cx="7.745" cy="7.745" r="7.745" transform="translate(513.455 125.794)" fill="#3f3d56"/><rect width="124.696" height="1.549" transform="translate(550.244 132.764)" fill="#3f3d56"/><circle cx="7.745" cy="7.745" r="7.745" transform="translate(513.455 212.359)" fill="#3f3d56"/><rect width="124.696" height="1.549" transform="translate(550.244 219.33)" fill="#3f3d56"/><path d="M588.766,300.985H550.04v-39.5h26.333v1.549H551.589v36.4h35.627V281.622h1.549Z" transform="translate(-124.028 -58.962)" fill="#3f3d56"/><path d="M588.766,188.985H550.04v-39.5h26.333v1.549H551.589v36.4h35.627V169.622h1.549Z" transform="translate(-124.028 -33.707)" fill="#3f3d56"/><path d="M588.766,74.985H550.04v-39.5h26.333v1.549H551.589v36.4h35.627V55.622h1.549Z" transform="translate(-124.028 -8.002)" fill="#3f3d56"/></g></svg>