<svg xmlns="http://www.w3.org/2000/svg" xmlns:xlink="http://www.w3.org/1999/xlink" width="93.857" height="77" viewBox="0 0 93.857 77"><defs><filter id="a" x="0" y="0" width="93.857" height="77" filterUnits="userSpaceOnUse"><feOffset dy="3" input="SourceAlpha"/><feGaussianBlur stdDeviation="3" result="b"/><feFlood flood-opacity="0.161"/><feComposite operator="in" in2="b"/><feComposite in="SourceGraphic"/></filter></defs><g transform="matrix(1, 0, 0, 1, 0, 0)" filter="url(#a)"><path d="M61.91,58.247s1,4.9,1.225,5.926h-4.4c.435-1.172,2.107-5.729,2.107-5.729-.026.04.435-1.2.7-1.962l.369,1.765ZM75.857,38.321V84.679A6.323,6.323,0,0,1,69.536,91H6.321A6.323,6.323,0,0,1,0,84.679V38.321A6.323,6.323,0,0,1,6.321,32H69.536A6.323,6.323,0,0,1,75.857,38.321ZM20.084,71.4l8.323-20.439h-5.6l-5.176,13.96-.566-2.831-1.844-9.4a2.2,2.2,0,0,0-2.4-1.725H4.306l-.092.408a20.9,20.9,0,0,1,5.558,2.252L14.487,71.4Zm12.432.026,3.319-20.466H30.54L27.235,71.43h5.281ZM50.94,64.74c.026-2.331-1.4-4.109-4.438-5.571-1.857-.935-2.99-1.567-2.99-2.529.026-.869.961-1.765,3.042-1.765a9.075,9.075,0,0,1,3.938.777l.474.224.724-4.425a13.151,13.151,0,0,0-4.741-.869c-5.228,0-8.9,2.792-8.929,6.769-.04,2.937,2.634,4.57,4.636,5.558,2.041,1,2.739,1.659,2.739,2.542-.026,1.37-1.659,2-3.174,2a10.549,10.549,0,0,1-4.965-1.093l-.7-.329-.738,4.6a16.16,16.16,0,0,0,5.9,1.093c5.558.013,9.179-2.739,9.219-6.98Zm18.6,6.69L65.269,50.964h-4.1a2.6,2.6,0,0,0-2.766,1.7L50.545,71.43H56.1s.909-2.529,1.106-3.069H64c.158.724.632,3.069.632,3.069Z" transform="translate(9 -26)" fill="#fff"/></g></svg>