<svg xmlns="http://www.w3.org/2000/svg" width="44.16" height="48.933" viewBox="0 0 44.16 48.933"><path d="M50.086,42.425,20.13,42.144a1.738,1.738,0,1,1,0-3.475l30.26.281a1.737,1.737,0,0,0,1.738-1.738A5.213,5.213,0,0,0,46.915,32l-28.522-.281a6.95,6.95,0,0,0-6.95,6.95V73.42a6.95,6.95,0,0,0,6.95,6.95l31.693.281A5.377,5.377,0,0,0,55.6,75.439v-27.8A5.377,5.377,0,0,0,50.086,42.425ZM45.177,65.014a3.475,3.475,0,1,1,3.475-3.475A3.476,3.476,0,0,1,45.177,65.014Z" transform="translate(-11.442 -31.719)" fill="#707070"/></svg>