<svg xmlns="http://www.w3.org/2000/svg" width="28.361" height="24.815" viewBox="0 0 28.361 24.815"><path d="M1.013,64.558H27.348a1.013,1.013,0,0,0,1.013-1.013V61.013A1.013,1.013,0,0,0,27.348,60H1.013A1.013,1.013,0,0,0,0,61.013v2.532A1.013,1.013,0,0,0,1.013,64.558Zm0,10.129H27.348a1.013,1.013,0,0,0,1.013-1.013V71.142a1.013,1.013,0,0,0-1.013-1.013H1.013A1.013,1.013,0,0,0,0,71.142v2.532A1.013,1.013,0,0,0,1.013,74.687Zm0,10.129H27.348A1.013,1.013,0,0,0,28.361,83.8V81.27a1.013,1.013,0,0,0-1.013-1.013H1.013A1.013,1.013,0,0,0,0,81.27V83.8A1.013,1.013,0,0,0,1.013,84.815Z" transform="translate(0 -60)" fill="#fff"/></svg>