<svg xmlns="http://www.w3.org/2000/svg" xmlns:xlink="http://www.w3.org/1999/xlink" width="125.76" height="111.969" viewBox="0 0 125.76 111.969"><defs><linearGradient id="a" x1="0.5" y1="1" x2="0.5" gradientUnits="objectBoundingBox"><stop offset="0" stop-color="gray" stop-opacity="0.251"/><stop offset="0.535" stop-color="gray" stop-opacity="0.122"/><stop offset="1" stop-color="gray" stop-opacity="0.102"/></linearGradient><linearGradient id="d" x1="0.5" y1="1" x2="0.5" gradientUnits="objectBoundingBox"><stop offset="0.005" stop-opacity="0.122"/><stop offset="0.551" stop-opacity="0.09"/><stop offset="1" stop-opacity="0.051"/></linearGradient></defs><g transform="translate(-1548 -3968.63)"><g transform="translate(1548 3968)"><path d="M42.2,164.969,0,168.933V69.6l42.2-3.964Z" transform="translate(0 -56.335)" fill="url(#a)"/><path d="M297.81,164.969l42.2,3.964V69.6l-42.2-3.964Z" transform="translate(-255.614 -56.335)" fill="url(#a)"/><path d="M636.989,164.969l-41.368,3.964V69.6l41.368-3.964Z" transform="translate(-511.229 -56.335)" fill="url(#a)"/><path d="M50.489,169.074l-41,3.809V77.438l41-3.809Z" transform="translate(-8.144 -63.197)" fill="#f5f5f5"/><path d="M298.865,169.074l41,3.809V77.438l-41-3.809Z" transform="translate(-256.52 -63.197)" fill="#fff"/><path d="M629.243,169.074l-41,3.809V77.438l41-3.809Z" transform="translate(-504.896 -63.197)" fill="#f5f5f5"/><path d="M110.208,135.494l-31.143,1.093v14.339H105.5v-5.185l4.705-.165,7.17,2.213V137.707Z" transform="translate(-67.863 -116.297)" fill="#6c63ff" opacity="0.3"/><path d="M87.135,624.04,52.183,627.4V614.63l34.952-3.361Z" transform="translate(-44.789 -524.66)" fill="#6c63ff" opacity="0.3"/><path d="M60.135,345.04,25.183,348.4V335.63l34.952-3.361Z" transform="translate(-21.615 -285.191)" fill="#6c63ff" opacity="0.3"/><rect width="15.235" height="11.651" transform="translate(62.958 89.521)" fill="#6c63ff" opacity="0.3"/><rect width="15.235" height="11.651" transform="translate(57.999 62.176)" fill="#6c63ff" opacity="0.3"/><rect width="15.235" height="11.651" transform="translate(64.233 25.762)" fill="#6c63ff" opacity="0.3"/><path d="M692.637,582.452l-23.749,2.017V569.01l23.749-2.017Z" transform="translate(-574.115 -486.658)" fill="#6c63ff" opacity="0.3"/><path d="M672.637,198.452l-23.749,2.016V185.009l23.749-2.016Z" transform="translate(-556.949 -157.066)" fill="#6c63ff" opacity="0.3"/><ellipse cx="3.016" cy="3.056" rx="3.016" ry="3.056" transform="translate(18.937 71.712)" fill="url(#d)"/><circle cx="2.711" cy="2.711" r="2.711" transform="translate(19.243 72.08)" fill="#fff"/><circle cx="2.711" cy="2.711" r="2.711" transform="translate(67.841 72.789)" fill="#fff"/><circle cx="2.711" cy="2.711" r="2.711" transform="translate(102.98 67.121)" fill="#fff"/><circle cx="2.711" cy="2.711" r="2.711" transform="translate(23.777 5.629)" fill="#fff"/></g><ellipse cx="12" cy="4.5" rx="12" ry="4.5" transform="translate(1599 4028)" fill="#265cb7" opacity="0.51"/><path d="M21.322,62.092C3.338,36.021,0,33.345,0,23.764a23.764,23.764,0,1,1,47.528,0c0,9.581-3.338,12.257-21.322,38.328a2.972,2.972,0,0,1-4.884,0Zm2.442-28.426a9.9,9.9,0,1,0-9.9-9.9A9.9,9.9,0,0,0,23.764,33.665Z" transform="translate(1587.472 3968.63)" fill="#265cb7"/></g></svg>