<svg xmlns="http://www.w3.org/2000/svg" xmlns:xlink="http://www.w3.org/1999/xlink" width="101.282" height="92.13" viewBox="0 0 101.282 92.13"><defs><filter id="a" x="0" y="0" width="101.282" height="92.13" filterUnits="userSpaceOnUse"><feOffset dy="3" input="SourceAlpha"/><feGaussianBlur stdDeviation="3" result="b"/><feFlood flood-opacity="0.161"/><feComposite operator="in" in2="b"/><feComposite in="SourceGraphic"/></filter><filter id="c" x="37.023" y="18.5" width="43.781" height="37.225" filterUnits="userSpaceOnUse"><feOffset dy="3" input="SourceAlpha"/><feGaussianBlur stdDeviation="3" result="d"/><feFlood flood-opacity="0.161"/><feComposite operator="in" in2="d"/><feComposite in="SourceGraphic"/></filter></defs><g transform="translate(9.5 6.5)"><g transform="matrix(1, 0, 0, 1, -9.5, -6.5)" filter="url(#a)"><path d="M-267.44,127.13a8.008,8.008,0,0,1-8-8,7.937,7.937,0,0,1,2.4-5.713H-302.98a7.938,7.938,0,0,1,2.4,5.713,8.008,8.008,0,0,1-8,8,8.007,8.007,0,0,1-8-8,8.024,8.024,0,0,1,4.018-6.936l-10.034-49.054h-9.981A3.432,3.432,0,0,1-336,59.713V57.428A3.432,3.432,0,0,1-332.572,54h14.644a3.441,3.441,0,0,1,3.359,2.741l1.309,6.4h56.1a3.41,3.41,0,0,1,2.678,1.289,3.412,3.412,0,0,1,.664,2.9l-6.753,29.709a3.41,3.41,0,0,1-3.343,2.668h-41.87l.934,4.57h38.339a3.41,3.41,0,0,1,2.678,1.289,3.412,3.412,0,0,1,.664,2.9l-.788,3.468a8.022,8.022,0,0,1,3.257,2.9,7.97,7.97,0,0,1,1.254,4.3A8.007,8.007,0,0,1-267.44,127.13Zm-44.633-56.917,4.83,23.133,39.488.14a2.479,2.479,0,0,0,2.44-1.905l3.924-18.244a2.4,2.4,0,0,0-.464-2.044,2.506,2.506,0,0,0-1.975-.946l-48.244-.133Z" transform="translate(345.5 -47.5)" fill="#707070" stroke="rgba(0,0,0,0)" stroke-miterlimit="10" stroke-width="1"/></g><g transform="matrix(1, 0, 0, 1, -9.5, -6.5)" filter="url(#c)"><path d="M8.757,83.946.378,75.567a1.289,1.289,0,0,1,0-1.823L2.2,71.921a1.289,1.289,0,0,1,1.823,0l5.644,5.644,12.09-12.089a1.289,1.289,0,0,1,1.823,0L25.4,67.3a1.289,1.289,0,0,1,0,1.823L10.58,83.946a1.289,1.289,0,0,1-1.823,0Z" transform="translate(46.02 -40.6)" fill="#265cb7"/></g></g></svg>