<svg xmlns="http://www.w3.org/2000/svg" width="72.644" height="72.644" viewBox="0 0 72.644 72.644"><path d="M64.86,2.25H7.783A7.786,7.786,0,0,0,0,10.033V67.11a7.786,7.786,0,0,0,7.783,7.783H64.86a7.786,7.786,0,0,0,7.783-7.783V10.033A7.786,7.786,0,0,0,64.86,2.25ZM20.594,59.408a3.241,3.241,0,0,1-5.611-3.245L17.3,52.157a5.562,5.562,0,0,1,6.42,1.85Zm22.522-8.74H13.62a3.242,3.242,0,0,1,0-6.485h8.27l10.6-18.355-3.323-5.74a3.241,3.241,0,0,1,5.611-3.245l1.444,2.5,1.444-2.5a3.241,3.241,0,0,1,5.611,3.245L29.366,44.183H39.435c3.275,0,5.108,3.842,3.681,6.487Zm15.908,0h-4.7l3.178,5.5a3.241,3.241,0,1,1-5.611,3.245q-8-13.84-12-20.771c-2.707-4.7-.777-9.4,1.151-10.993q3.186,5.521,9.55,16.54h8.431a3.242,3.242,0,0,1,0,6.485Z" transform="translate(0 -2.25)" fill="#707070"/></svg>