<svg xmlns="http://www.w3.org/2000/svg" width="64.604" height="72" viewBox="0 0 64.604 72"><path d="M47.25,22.5h-51.1a6.75,6.75,0,0,0-6.75,6.75v31.5a6.75,6.75,0,0,0,6.75,6.75H-1.6v2.25A2.249,2.249,0,0,0,.646,72h4.5A2.249,2.249,0,0,0,7.4,69.75V67.5H36v2.25A2.249,2.249,0,0,0,38.25,72h4.5A2.249,2.249,0,0,0,45,69.75V67.5h2.25A6.75,6.75,0,0,0,54,60.75V29.25A6.75,6.75,0,0,0,47.25,22.5ZM45,52.875A1.125,1.125,0,0,1,43.875,54H-.479A1.125,1.125,0,0,1-1.6,52.875v-2.25A1.125,1.125,0,0,1-.479,49.5H43.875A1.125,1.125,0,0,1,45,50.625Zm0-13.5A1.125,1.125,0,0,1,43.875,40.5H-.479A1.125,1.125,0,0,1-1.6,39.375v-2.25A1.125,1.125,0,0,1-.479,36H43.875A1.125,1.125,0,0,1,45,37.125ZM9.646,6.75h24.1V18H40.5V6.75A6.75,6.75,0,0,0,33.75,0H9.646A6.75,6.75,0,0,0,2.9,6.75V18h6.75Z" transform="translate(10.604)" fill="#707070"/></svg>