<svg xmlns="http://www.w3.org/2000/svg" xmlns:xlink="http://www.w3.org/1999/xlink" width="111.399" height="90.644" viewBox="0 0 111.399 90.644"><defs><filter id="a" x="0" y="0" width="111.399" height="90.644" filterUnits="userSpaceOnUse"><feOffset dy="3" input="SourceAlpha"/><feGaussianBlur stdDeviation="3" result="b"/><feFlood flood-opacity="0.161"/><feComposite operator="in" in2="b"/><feComposite in="SourceGraphic"/></filter><filter id="c" x="18.66" y="10.934" width="38.32" height="54.132" filterUnits="userSpaceOnUse"><feOffset dy="3" input="SourceAlpha"/><feGaussianBlur stdDeviation="3" result="d"/><feFlood flood-opacity="0.161"/><feComposite operator="in" in2="d"/><feComposite in="SourceGraphic"/></filter></defs><g transform="translate(9 6)"><g transform="matrix(1, 0, 0, 1, -9, -6)" filter="url(#a)"><path d="M85.616,32H7.783A7.785,7.785,0,0,0,0,39.783V96.86a7.785,7.785,0,0,0,7.783,7.783H85.616A7.785,7.785,0,0,0,93.4,96.86V39.783A7.785,7.785,0,0,0,85.616,32Zm0,64.86H7.783V39.783H85.616ZM4.886,90.823H88.518a1.3,1.3,0,0,0,1.3-1.3v-6.8a1.3,1.3,0,0,0-1.3-1.3H4.886a1.3,1.3,0,0,0-1.3,1.3v6.8A1.3,1.3,0,0,0,4.886,90.823Zm53.488-22.5H76.535a1.3,1.3,0,0,0,1.3-1.3V64.43a1.3,1.3,0,0,0-1.3-1.3H58.374a1.3,1.3,0,0,0-1.3,1.3v2.594A1.3,1.3,0,0,0,58.374,68.322Zm0-10.378H76.535a1.3,1.3,0,0,0,1.3-1.3V54.053a1.3,1.3,0,0,0-1.3-1.3H58.374a1.3,1.3,0,0,0-1.3,1.3v2.594A1.3,1.3,0,0,0,58.374,57.944Z" transform="translate(9 -26)" fill="#707070"/></g><g transform="matrix(1, 0, 0, 1, -9, -6)" filter="url(#c)"><path d="M14.8,16.471l-7.622-2.23a2.081,2.081,0,0,1,.586-4.079H12.44a4.308,4.308,0,0,1,2.413.741,1.1,1.1,0,0,0,1.376-.141l2.456-2.4a1.144,1.144,0,0,0-.127-1.729,9.979,9.979,0,0,0-6.1-2.117V1.129A1.132,1.132,0,0,0,11.325,0H9.067A1.132,1.132,0,0,0,7.938,1.129V4.516H7.761a7.732,7.732,0,0,0-7.692,8.44,8.078,8.078,0,0,0,5.914,6.817l7.233,2.117a2.081,2.081,0,0,1-.586,4.079H7.952a4.308,4.308,0,0,1-2.413-.741,1.1,1.1,0,0,0-1.376.141l-2.456,2.4A1.144,1.144,0,0,0,1.833,29.5a9.979,9.979,0,0,0,6.1,2.117V35a1.132,1.132,0,0,0,1.129,1.129h2.258A1.132,1.132,0,0,0,12.454,35V31.6a7.971,7.971,0,0,0,7.459-5.13,7.749,7.749,0,0,0-5.116-10Z" transform="translate(27.62 16.93)" fill="#265cb7"/></g></g></svg>