<svg xmlns="http://www.w3.org/2000/svg" width="73" height="72.505" viewBox="0 0 73 72.505"><path d="M47.711,0H-11.694a6.8,6.8,0,0,0-6.8,6.8v58.91a6.8,6.8,0,0,0,6.8,6.8H47.711a6.8,6.8,0,0,0,6.8-6.8V6.8A6.8,6.8,0,0,0,47.711,0ZM1.686,6.306H33.9a2.266,2.266,0,1,1,0,4.532H1.686a2.266,2.266,0,1,1,0-4.532Zm16.7,15.5a9.063,9.063,0,1,1-9.063,9.063A9.072,9.072,0,0,1,18.384,21.808Zm15.86,33.533a2.97,2.97,0,0,1-3.172,2.719H5.7a2.97,2.97,0,0,1-3.172-2.719V52.622c0-4.5,4.262-8.157,9.516-8.157h.709a14.57,14.57,0,0,0,11.27,0h.709c5.255,0,9.516,3.653,9.516,8.157Z" transform="translate(18.492)" fill="#707070"/></svg>