<svg xmlns="http://www.w3.org/2000/svg" width="37.833" height="50.445" viewBox="0 0 37.833 50.445"><path d="M22.07,13.4V0H2.365A2.359,2.359,0,0,0,0,2.365V48.08a2.359,2.359,0,0,0,2.365,2.365h33.1a2.359,2.359,0,0,0,2.365-2.365V15.764h-13.4A2.372,2.372,0,0,1,22.07,13.4Zm6.306,23.252a1.186,1.186,0,0,1-1.182,1.182H10.641a1.186,1.186,0,0,1-1.182-1.182v-.788a1.186,1.186,0,0,1,1.182-1.182H27.193a1.186,1.186,0,0,1,1.182,1.182Zm0-6.306a1.186,1.186,0,0,1-1.182,1.182H10.641a1.186,1.186,0,0,1-1.182-1.182v-.788a1.186,1.186,0,0,1,1.182-1.182H27.193a1.186,1.186,0,0,1,1.182,1.182Zm0-7.094v.788a1.186,1.186,0,0,1-1.182,1.182H10.641A1.186,1.186,0,0,1,9.458,24.04v-.788a1.186,1.186,0,0,1,1.182-1.182H27.193A1.186,1.186,0,0,1,28.375,23.252ZM37.833,12.01v.6H25.222V0h.6A2.363,2.363,0,0,1,27.5.69l9.646,9.655A2.357,2.357,0,0,1,37.833,12.01Z" fill="#707070"/></svg>