<svg xmlns="http://www.w3.org/2000/svg" xmlns:xlink="http://www.w3.org/1999/xlink" width="93.857" height="77" viewBox="0 0 93.857 77"><defs><filter id="a" x="0" y="0" width="93.857" height="77" filterUnits="userSpaceOnUse"><feOffset dy="3" input="SourceAlpha"/><feGaussianBlur stdDeviation="3" result="b"/><feFlood flood-opacity="0.161"/><feComposite operator="in" in2="b"/><feComposite in="SourceGraphic"/></filter></defs><g transform="matrix(1, 0, 0, 1, 0, 0)" filter="url(#a)"><path d="M69.536,32H6.321A6.323,6.323,0,0,0,0,38.321V84.679A6.323,6.323,0,0,0,6.321,91H69.536a6.323,6.323,0,0,0,6.321-6.321V38.321A6.323,6.323,0,0,0,69.536,32ZM23.179,44.643a8.429,8.429,0,1,1-8.429,8.429A8.436,8.436,0,0,1,23.179,44.643Zm14.75,31.186a2.762,2.762,0,0,1-2.95,2.529h-23.6a2.762,2.762,0,0,1-2.95-2.529V73.3c0-4.188,3.964-7.586,8.85-7.586h.658a13.565,13.565,0,0,0,10.483,0h.658c4.886,0,8.85,3.4,8.85,7.586Zm29.5-6.954a1.057,1.057,0,0,1-1.054,1.054H47.411a1.057,1.057,0,0,1-1.054-1.054V66.768a1.057,1.057,0,0,1,1.054-1.054H66.375a1.057,1.057,0,0,1,1.054,1.054Zm0-8.429A1.057,1.057,0,0,1,66.375,61.5H47.411a1.057,1.057,0,0,1-1.054-1.054V58.339a1.057,1.057,0,0,1,1.054-1.054H66.375a1.057,1.057,0,0,1,1.054,1.054Zm0-8.429a1.057,1.057,0,0,1-1.054,1.054H47.411a1.057,1.057,0,0,1-1.054-1.054V49.911a1.057,1.057,0,0,1,1.054-1.054H66.375a1.057,1.057,0,0,1,1.054,1.054Z" transform="translate(9 -26)" fill="#fff"/></g></svg>