<svg xmlns="http://www.w3.org/2000/svg" width="56.062" height="56.049" viewBox="0 0 56.062 56.049"><path d="M27.962,45.479a14.37,14.37,0,1,0,14.37,14.37A14.348,14.348,0,0,0,27.962,45.479Zm0,23.713A9.343,9.343,0,1,1,37.3,59.85a9.36,9.36,0,0,1-9.343,9.343Zm18.31-24.3A3.352,3.352,0,1,1,42.92,41.54,3.344,3.344,0,0,1,46.272,44.892Zm9.518,3.4c-.213-4.49-1.238-8.467-4.527-11.744s-7.254-4.3-11.744-4.527c-4.628-.263-18.5-.263-23.125,0-4.477.213-8.455,1.238-11.744,4.515S.347,43.791.122,48.281c-.263,4.628-.263,18.5,0,23.125C.335,75.9,1.36,79.873,4.649,83.15s7.254,4.3,11.744,4.527c4.628.263,18.5.263,23.125,0,4.49-.213,8.467-1.238,11.744-4.527s4.3-7.254,4.527-11.744c.263-4.628.263-18.485,0-23.113ZM49.812,76.371A9.459,9.459,0,0,1,44.484,81.7c-3.69,1.463-12.444,1.126-16.522,1.126S15.118,83.15,11.441,81.7a9.459,9.459,0,0,1-5.328-5.328C4.649,72.682,4.987,63.927,4.987,59.85S4.662,47.005,6.113,43.328A9.459,9.459,0,0,1,11.441,38c3.69-1.463,12.444-1.126,16.522-1.126S40.807,36.549,44.484,38a9.459,9.459,0,0,1,5.328,5.328c1.463,3.69,1.126,12.444,1.126,16.522S51.275,72.694,49.812,76.371Z" transform="translate(0.075 -31.825)" fill="#fff"/></svg>