<svg xmlns="http://www.w3.org/2000/svg" width="37.844" height="39.786" viewBox="0 0 37.844 39.786"><path d="M68.9,22.927c-2.324.592-5.931,2.48-9.973,5.872a17.993,17.993,0,1,0,4.169,3.18,13.521,13.521,0,0,0-1.48,2.385,15.391,15.391,0,0,1-19.137,23.6C49.7,48.619,55.6,54.673,58.52,38.233c.5-2.839,2.437-8.2,10.987-13.942A.759.759,0,0,0,68.9,22.927ZM40.095,56.28A15.4,15.4,0,0,1,50.1,29.167a15.145,15.145,0,0,1,6.67,1.545C51.03,36.118,45.732,44.018,40.095,56.28Z" transform="translate(-32 -22.901)" fill="#fff"/></svg>