<svg xmlns="http://www.w3.org/2000/svg" xmlns:xlink="http://www.w3.org/1999/xlink" width="93.857" height="77" viewBox="0 0 93.857 77"><defs><filter id="a" x="0" y="0" width="93.857" height="77" filterUnits="userSpaceOnUse"><feOffset dy="3" input="SourceAlpha"/><feGaussianBlur stdDeviation="3" result="b"/><feFlood flood-opacity="0.161"/><feComposite operator="in" in2="b"/><feComposite in="SourceGraphic"/></filter></defs><g transform="matrix(1, 0, 0, 1, 0, 0)" filter="url(#a)"><path d="M63.6,82.689a1.476,1.476,0,1,1-1.475-1.541A1.472,1.472,0,0,1,63.6,82.689ZM22.665,81.148A1.545,1.545,0,1,0,24.1,82.689,1.456,1.456,0,0,0,22.665,81.148Zm15.474-.04a1.221,1.221,0,0,0-1.251,1.146H39.4A1.211,1.211,0,0,0,38.139,81.109Zm14.2.04a1.542,1.542,0,1,0,1.475,1.541A1.456,1.456,0,0,0,52.336,81.148Zm13.947,3.437c0,.04.04.066.04.145,0,.04-.04.066-.04.145a.463.463,0,0,0-.066.105.17.17,0,0,1-.145.066c-.04.04-.066.04-.145.04a.261.261,0,0,1-.145-.04c-.04,0-.066-.04-.105-.066s-.066-.066-.066-.105a.239.239,0,0,1-.04-.145c0-.066,0-.105.04-.145a.248.248,0,0,1,.066-.145.462.462,0,0,1,.105-.066.24.24,0,0,1,.145-.04c.066,0,.105,0,.145.04.066.04.105.04.145.066S66.243,84.52,66.283,84.585Zm-.29.184c.066,0,.066-.04.105-.04a.16.16,0,0,0,0-.211c-.04,0-.066-.04-.145-.04h-.211v.461h.105v-.184h.04l.145.184h.105l-.145-.171Zm9.864-45.448V85.679A6.323,6.323,0,0,1,69.536,92H6.321A6.323,6.323,0,0,1,0,85.679V39.321A6.323,6.323,0,0,1,6.321,33H69.536A6.323,6.323,0,0,1,75.857,39.321ZM8.429,57.706A18.231,18.231,0,0,0,36.743,72.9a19.64,19.64,0,0,1,0-30.356A18.231,18.231,0,0,0,8.429,57.706Zm29.5,14.329a18.234,18.234,0,0,0,0-28.644A18.234,18.234,0,0,0,37.929,72.035ZM19.188,82.083a1.846,1.846,0,0,0-1.936-1.936A1.883,1.883,0,0,0,15.567,81a1.746,1.746,0,0,0-1.607-.856,1.672,1.672,0,0,0-1.4.711v-.579h-1.08v4.833h1.08c0-2.489-.329-3.977,1.185-3.977,1.343,0,1.08,1.343,1.08,3.977h1.04c0-2.41-.329-3.977,1.185-3.977,1.343,0,1.08,1.317,1.08,3.977h1.08V82.083Zm5.913-1.8h-1.04v.579a1.9,1.9,0,0,0-1.541-.711,2.546,2.546,0,0,0,0,5.083,1.826,1.826,0,0,0,1.541-.711v.606H25.1Zm5.334,3.371c0-1.975-3.016-1.08-3.016-2,0-.751,1.567-.632,2.436-.145l.435-.856c-1.238-.8-3.977-.79-3.977,1.08s3.016,1.093,3.016,1.975c0,.83-1.778.764-2.726.105l-.461.83c1.475,1,4.293.79,4.293-.988ZM35.1,84.875l-.29-.9c-.5.277-1.607.579-1.607-.54V81.254h1.725v-.975H33.2V78.8h-1.08v1.475h-1v.961h1v2.2c0,2.318,2.278,1.9,2.976,1.435Zm1.752-1.765H40.47c0-2.133-.975-2.976-2.292-2.976a2.371,2.371,0,0,0-2.4,2.542c0,2.7,2.976,3.148,4.451,1.87l-.5-.79C38.706,84.6,37.152,84.52,36.849,83.11Zm7.783-2.831a1.545,1.545,0,0,0-2,.579v-.579H41.55v4.833h1.08V82.386a1.1,1.1,0,0,1,1.686-1.106l.316-1Zm1.4,2.41c0-1.5,1.528-1.989,2.726-1.106l.5-.856a2.606,2.606,0,1,0,0,3.951l-.5-.856C47.542,84.678,46.028,84.164,46.028,82.689Zm8.784-2.41h-1.08v.579c-1.093-1.449-3.938-.632-3.938,1.831,0,2.529,2.95,3.253,3.938,1.831v.606h1.08Zm4.438,0a1.582,1.582,0,0,0-2,.579v-.579h-1.04v4.833h1.04V82.386a1.105,1.105,0,0,1,1.686-1.106l.316-1Zm5.307-1.962h-1.04v2.542c-1.08-1.435-3.938-.672-3.938,1.831,0,2.555,2.963,3.24,3.938,1.831v.606h1.04Zm1-9.89v.606h.105v-.606h.25v-.105h-.606v.105Zm.869,16.3a.4.4,0,0,0-.04-.211c-.04-.04-.066-.105-.105-.145s-.105-.066-.145-.105c-.066,0-.145-.04-.211-.04a1.4,1.4,0,0,1-.184.04.688.688,0,0,0-.145.105.206.206,0,0,0-.105.145.4.4,0,0,0-.04.211.383.383,0,0,0,.04.184.206.206,0,0,0,.105.145.456.456,0,0,0,.145.105.358.358,0,0,0,.184.04.4.4,0,0,0,.211-.04c.04-.04.105-.066.145-.105s.066-.105.105-.145A.383.383,0,0,0,66.428,84.73Zm.421-16.423h-.184l-.211.461-.211-.461h-.184v.711h.105v-.54l.211.461h.145l.184-.461v.54h.145Zm.579-10.6A18.231,18.231,0,0,0,39.114,42.535a19.64,19.64,0,0,1,0,30.356A18.231,18.231,0,0,0,67.429,57.706Z" transform="translate(9 -27)" fill="#f5f7fa"/></g></svg>