<svg xmlns="http://www.w3.org/2000/svg" width="88.187" height="56.53" viewBox="0 0 88.187 56.53"><path d="M4.522,0H83.665a4.522,4.522,0,0,1,4.522,4.522V52.008a4.522,4.522,0,0,1-4.522,4.522H4.522A4.522,4.522,0,0,1,0,52.008V4.522A4.522,4.522,0,0,1,4.522,0Z" fill="#265cb7"/><path d="M130.59,90.794a20.295,20.295,0,1,1-20.3-20.294,20.294,20.294,0,0,1,20.3,20.294" transform="translate(-79.825 -62.529)" fill="#d9222a"/><path d="M354.861,70.5a20.22,20.22,0,0,0-13.624,5.253,20.623,20.623,0,0,0-2.049,2.148h4.1a20.562,20.562,0,0,1,1.547,2.15h-7.195a20.245,20.245,0,0,0-1.169,2.149H346a20.256,20.256,0,0,1,.859,2.149H335.613a20.034,20.034,0,0,0-.59,2.149h12.43a20.405,20.405,0,0,1-.589,10.744H335.613a20.049,20.049,0,0,0,.859,2.149H346a20.336,20.336,0,0,1-1.17,2.15h-7.193a20.521,20.521,0,0,0,1.547,2.148h4.1a20.268,20.268,0,0,1-2.05,2.15A20.295,20.295,0,1,0,354.861,70.5" transform="translate(-297.145 -62.526)" fill="#ee9f2d"/><path d="M165.3,222.6a.655.655,0,1,1,.655.656A.656.656,0,0,1,165.3,222.6Zm.655.5a.5.5,0,0,0,0-1h0a.5.5,0,0,0-.5.5h0a.5.5,0,0,0,.5.5Zm-.089-.21h-.134v-.576h.243a.262.262,0,0,1,.148.029.174.174,0,0,1,.073.145.158.158,0,0,1-.1.148l.106.254h-.149l-.088-.228h-.1v.228Zm0-.327h.074a.167.167,0,0,0,.082-.011.078.078,0,0,0,.033-.066.072.072,0,0,0-.033-.058.17.17,0,0,0-.086-.011h-.072Zm-50.142-9.052a3.68,3.68,0,0,0-.492-.034c-1.249,0-1.881.428-1.881,1.274a.769.769,0,0,0,.79.853C115.035,215.6,115.682,214.747,115.721,213.508Zm1.6,3.731H115.5l.042-.868a2.764,2.764,0,0,1-2.309,1.012,2.06,2.06,0,0,1-2.013-2.287c0-2.038,1.424-3.227,3.869-3.227a7.471,7.471,0,0,1,.9.064,2.053,2.053,0,0,0,.086-.543c0-.555-.384-.762-1.413-.762a7.3,7.3,0,0,0-2.332.377c.023-.139.305-1.883.305-1.883a8.789,8.789,0,0,1,2.637-.443c1.892,0,2.894.849,2.892,2.455a10.7,10.7,0,0,1-.179,1.659C117.789,214.006,117.379,216.605,117.323,217.239Zm-7.028,0h-2.2l1.262-7.914-2.818,7.914h-1.5l-.185-7.869-1.327,7.869H101.46l1.723-10.295h3.168l.192,5.762,1.932-5.762H112l-1.7,10.295m40.134-3.731a3.664,3.664,0,0,0-.491-.034c-1.248,0-1.881.428-1.881,1.274a.769.769,0,0,0,.789.853C149.745,215.6,150.392,214.747,150.43,213.508Zm1.6,3.731h-1.825l.041-.868a2.764,2.764,0,0,1-2.309,1.012,2.059,2.059,0,0,1-2.012-2.287c0-2.038,1.423-3.227,3.868-3.227a7.449,7.449,0,0,1,.9.064,2.058,2.058,0,0,0,.086-.543c0-.555-.384-.762-1.413-.762a7.314,7.314,0,0,0-2.332.377c.023-.139.306-1.883.306-1.883a8.786,8.786,0,0,1,2.636-.443c1.893,0,2.895.849,2.893,2.455a10.7,10.7,0,0,1-.179,1.659C152.5,214.006,152.089,216.605,152.033,217.239Zm-24.917-.127a5.03,5.03,0,0,1-1.583.271,1.612,1.612,0,0,1-1.741-1.839,19.276,19.276,0,0,1,.3-2.231c.127-.782.955-5.713.955-5.713h2.19l-.256,1.267h1.323l-.3,2.012H126.68c-.254,1.592-.617,3.576-.621,3.838,0,.432.23.62.754.62a1.784,1.784,0,0,0,.594-.079l-.291,1.854m6.715-.068a7.475,7.475,0,0,1-2.248.339c-2.451,0-3.73-1.283-3.73-3.735,0-2.862,1.626-4.969,3.833-4.969a2.8,2.8,0,0,1,2.959,3.03,9,9,0,0,1-.27,2.059h-4.361c-.147,1.215.63,1.72,1.9,1.72a5.184,5.184,0,0,0,2.277-.527ZM132.6,212.08c.012-.174.232-1.494-1.019-1.494-.7,0-1.2.532-1.4,1.494Zm-13.954-.567a2.444,2.444,0,0,0,1.678,2.338c.892.419,1.03.544,1.03.924,0,.522-.393.758-1.265.758a6.2,6.2,0,0,1-1.974-.33s-.29,1.845-.3,1.933a10.158,10.158,0,0,0,2.293.248c2.325,0,3.4-.885,3.4-2.8a2.292,2.292,0,0,0-1.553-2.333c-.924-.424-1.03-.519-1.03-.91,0-.453.366-.684,1.078-.684a12.079,12.079,0,0,1,1.583.126l.314-1.942a14.935,14.935,0,0,0-1.939-.163c-2.465,0-3.318,1.287-3.31,2.834m25.9-2.614a4.205,4.205,0,0,1,1.969.556l.36-2.234a6.468,6.468,0,0,0-2.421-.871,4.387,4.387,0,0,0-3.6,1.939c-1.279-.424-1.8.432-2.449,1.285l-.572.133a4.223,4.223,0,0,0,.069-.842h-2.023c-.276,2.591-.766,5.216-1.15,7.81l-.1.563h2.2c.368-2.39.57-3.921.692-4.957l.83-.462c.124-.461.512-.617,1.291-.6a9.381,9.381,0,0,0-.156,1.717c0,2.739,1.478,4.444,3.85,4.444a6.91,6.91,0,0,0,1.947-.3l.388-2.347a4.284,4.284,0,0,1-1.872.529c-1.281,0-2.056-.945-2.056-2.508,0-2.267,1.153-3.856,2.8-3.856" transform="translate(-89.989 -183.021)"/><path d="M115.9,216.491h-2.2l1.263-7.913-2.818,7.913h-1.5l-.186-7.868-1.327,7.868h-2.063l1.723-10.293h3.168l.089,6.372,2.137-6.372H117.6l-1.7,10.293" transform="translate(-94.959 -182.885)" fill="#fff"/><path d="M565.689,211.6l-.488,2.974a2.757,2.757,0,0,0-2.1-1.367,3.413,3.413,0,0,0-2.786,2.083,18.271,18.271,0,0,1-1.876-.516v.008a12.429,12.429,0,0,0,.1-1.26h-2.024c-.276,2.591-.765,5.215-1.148,7.81l-.1.563h2.2c.3-1.933.526-3.538.693-4.811.753-.68,1.13-1.274,1.891-1.234a7.175,7.175,0,0,0-.534,2.715c0,2.093,1.059,3.474,2.661,3.474a2.6,2.6,0,0,0,2.031-.924l-.1.778h2.084l1.678-10.293Zm-2.755,8.36c-.75,0-1.129-.555-1.129-1.65,0-1.645.709-2.812,1.709-2.812.757,0,1.167.577,1.167,1.64C564.681,218.8,563.961,219.96,562.934,219.96Z" transform="translate(-492.48 -187.676)"/><path d="M197.868,210.744a3.7,3.7,0,0,0-.491-.034c-1.249,0-1.881.428-1.881,1.274a.769.769,0,0,0,.789.853C197.183,212.837,197.83,211.982,197.868,210.744Zm1.6,3.729h-1.825l.041-.866a2.768,2.768,0,0,1-2.309,1.012,2.059,2.059,0,0,1-2.013-2.287c0-2.039,1.424-3.227,3.868-3.227a7.415,7.415,0,0,1,.9.065,2.058,2.058,0,0,0,.086-.544c0-.555-.383-.761-1.413-.761a7.359,7.359,0,0,0-2.332.376c.023-.139.305-1.881.305-1.881a8.753,8.753,0,0,1,2.637-.444c1.892,0,2.895.85,2.893,2.454a10.785,10.785,0,0,1-.179,1.659c-.191,1.213-.6,3.813-.657,4.445Zm29.552-10.016-.361,2.235a4.209,4.209,0,0,0-1.968-.556c-1.645,0-2.8,1.589-2.8,3.856,0,1.563.775,2.508,2.056,2.508a4.273,4.273,0,0,0,1.872-.529l-.387,2.346a6.865,6.865,0,0,1-1.948.3c-2.372,0-3.85-1.705-3.85-4.444,0-3.68,2.042-6.252,4.962-6.252a7.642,7.642,0,0,1,2.422.535m3.555,6.287a3.688,3.688,0,0,0-.491-.034c-1.248,0-1.881.428-1.881,1.274a.77.77,0,0,0,.79.853C231.892,212.837,232.54,211.982,232.577,210.744Zm1.6,3.729h-1.826l.042-.866a2.768,2.768,0,0,1-2.309,1.012,2.06,2.06,0,0,1-2.013-2.287c0-2.039,1.424-3.227,3.868-3.227a7.418,7.418,0,0,1,.9.065,2.074,2.074,0,0,0,.086-.544c0-.555-.384-.761-1.413-.761a7.361,7.361,0,0,0-2.332.376c.023-.139.306-1.881.306-1.881a8.75,8.75,0,0,1,2.636-.444c1.893,0,2.895.85,2.892,2.454a10.63,10.63,0,0,1-.179,1.659c-.19,1.213-.6,3.813-.657,4.445Zm-24.917-.127a5.037,5.037,0,0,1-1.583.272,1.612,1.612,0,0,1-1.741-1.839,19.349,19.349,0,0,1,.3-2.232c.127-.783.955-5.713.955-5.713h2.19l-.255,1.268h1.124l-.3,2.011h-1.128c-.254,1.593-.618,3.575-.621,3.838,0,.433.231.62.754.62a1.785,1.785,0,0,0,.594-.078l-.292,1.853m6.715-.067a7.491,7.491,0,0,1-2.248.339c-2.452,0-3.73-1.283-3.73-3.735,0-2.863,1.626-4.969,3.833-4.969a2.8,2.8,0,0,1,2.959,3.03,9.02,9.02,0,0,1-.269,2.059h-4.361c-.148,1.214.63,1.721,1.9,1.721a5.17,5.17,0,0,0,2.277-.529Zm-1.231-4.965c.013-.174.233-1.494-1.019-1.494-.7,0-1.2.533-1.4,1.494Zm-13.954-.566a2.445,2.445,0,0,0,1.678,2.338c.892.419,1.03.544,1.03.924,0,.522-.394.757-1.265.757a6.209,6.209,0,0,1-1.975-.33s-.289,1.845-.3,1.933a10.216,10.216,0,0,0,2.292.248c2.325,0,3.4-.885,3.4-2.8a2.291,2.291,0,0,0-1.553-2.333c-.923-.425-1.03-.518-1.03-.91,0-.452.367-.685,1.079-.685a12.127,12.127,0,0,1,1.583.127l.313-1.942a14.917,14.917,0,0,0-1.939-.163c-2.465,0-3.318,1.287-3.311,2.834m45.049,5.724h-2.085l.1-.779a2.594,2.594,0,0,1-2.031.925c-1.6,0-2.66-1.381-2.66-3.474,0-2.785,1.642-5.132,3.585-5.132a2.485,2.485,0,0,1,2.1,1.141l.489-2.974h2.173l-1.678,10.293Zm-3.25-1.934c1.026,0,1.747-1.163,1.747-2.821,0-1.063-.41-1.64-1.167-1.64-1,0-1.709,1.166-1.709,2.812C241.462,211.985,241.842,212.539,242.592,212.539Zm-6.427-6.436c-.276,2.591-.766,5.215-1.149,7.808l-.1.562h2.2c.788-5.119.979-6.119,2.215-5.993a8.23,8.23,0,0,1,.837-2.428c-.923-.192-1.438.329-2.113,1.32a7.563,7.563,0,0,0,.131-1.269h-2.024m-18.137,0c-.277,2.591-.767,5.215-1.15,7.808l-.1.562h2.2c.787-5.119.978-6.119,2.212-5.993a8.285,8.285,0,0,1,.837-2.428c-.922-.192-1.438.329-2.112,1.32a7.673,7.673,0,0,0,.131-1.269h-2.024m28.782,7.715a.655.655,0,0,1,1.31,0v0a.655.655,0,1,1-1.31,0Zm.655.5a.5.5,0,0,0,.5-.5h0a.5.5,0,0,0-.5-.5h0a.5.5,0,1,0,0,1Zm-.089-.211h-.134v-.575h.244a.266.266,0,0,1,.147.029.174.174,0,0,1,.074.144.157.157,0,0,1-.1.149l.106.253h-.149l-.088-.227h-.1v.227Zm0-.326h.074a.171.171,0,0,0,.082-.011.079.079,0,0,0,.033-.066.076.076,0,0,0-.032-.059.191.191,0,0,0-.086-.01h-.071v.147h0Z" transform="translate(-171.503 -180.866)" fill="#fff"/></svg>