<svg xmlns="http://www.w3.org/2000/svg" width="86" height="57" viewBox="0 0 86 57"><g transform="translate(-1.23 -0.091)"><rect width="86" height="57" rx="4" transform="translate(1.23 0.091)" fill="#265cb7"/><path d="M136.126,171.46l3.756-22.041h6.008l-3.759,22.041Zm27.71-21.566a15.516,15.516,0,0,0-5.384-.926c-5.936,0-10.118,2.989-10.154,7.274-.034,3.167,2.985,4.934,5.264,5.988,2.339,1.08,3.125,1.769,3.114,2.734-.015,1.477-1.867,2.152-3.594,2.152a12.6,12.6,0,0,1-5.655-1.157l-.774-.35-.843,4.934a19.022,19.022,0,0,0,6.692,1.176c6.315,0,10.415-2.955,10.462-7.53.022-2.507-1.578-4.415-5.044-5.989-2.1-1.02-3.386-1.7-3.372-2.732,0-.916,1.089-1.9,3.44-1.9a11.088,11.088,0,0,1,4.5.844l.538.254.814-4.777m15.46-.475h-4.642a2.989,2.989,0,0,0-3.146,1.828l-8.922,20.2h6.309s1.031-2.716,1.265-3.312c.69,0,6.818.009,7.694.009.18.772.731,3.3.731,3.3h5.575L179.3,149.418Zm-7.366,14.233c.5-1.27,2.394-6.161,2.394-6.161-.036.059.493-1.276.8-2.1l.406,1.9s1.151,5.261,1.391,6.365Zm-40.905-14.233-5.882,15.031-.627-3.055c-1.095-3.521-4.507-7.336-8.32-9.246l5.378,19.276,6.357-.007,9.458-22h-6.364" transform="translate(-102.824 -132.033)" fill="#fff"/><path d="M69.962,152.956H60.275l-.077.459c7.537,1.824,12.524,6.233,14.594,11.531l-2.107-10.129c-.364-1.4-1.418-1.812-2.723-1.861" transform="translate(-53.13 -135.572)" fill="#f2ae14"/></g></svg>